<svg id="ekf9M8SaQIs1" xmlns="http://www.w3.org/2000/svg" xmlns:xlink="http://www.w3.org/1999/xlink" viewBox="0 0 246 80" shape-rendering="geometricPrecision" text-rendering="geometricPrecision"><path d="M161.647,51.1755c0,0,0-.0987,0,0c.893-1.5794.695-3.3563.992-4.9357c0-.2962.099-.4936.199-.691.198-.7897.595-1.1846,1.389-1.2833c2.084-.1974,4.168-.1974,5.855,1.382.596-1.0859,1.092-2.073,1.786-3.0602.397-.4935.794-.9871,1.39-1.382.496-.3948.992-.5923,1.588-.5923c2.381,0,4.366.7898,5.656,2.7641.496.691.596,1.5794.794,2.3691.298-.0987.397-.3949.496-.691.397-.7897.894-1.5794,1.588-2.1717c1.588-1.5795,3.474-2.1717,5.756-1.5795.199,0,.298.0988.496.0988.199,0,.298.0987.496.0987.1-.8885.199-1.8756.199-2.764.198-2.5666.397-5.2319.794-7.7985.198-1.4807.595-1.9743,2.183-2.073c1.489-.0987,2.977.0987,4.168,1.0859.993.691,1.489,1.7768,1.191,2.9614-.595,3.3563-.893,6.7126-1.092,10.0689-.297,3.7511-.496,7.601-.496,11.3522c0,.2961,0,.691.099.9871.397-.8884.497-1.7769.695-2.764.199-.8884.298-1.7769.397-2.764.099-.5923.298-1.1846.992-1.4807.794-.3949,1.687-.0987,2.084.7897.596,1.2833,1.092,2.6653.993,4.2447-.099,2.1717-.496,4.3434-1.191,6.4164-.496,1.5795-1.29,2.9615-2.679,3.9486-2.382,1.7769-5.756,1.1846-7.443-1.1846-.199-.2961-.397-.691-.695-1.0858-.397.0987-.397.3948-.596.5923-.595.7897-1.29,1.4807-2.183,1.9743-1.687.8884-3.473.2961-4.763-1.0859-.695-.691-1.191-1.5794-1.489-2.5666-.099-.1974-.198-.4935-.298-.7897-.297.9872-.198,3.0602.199,3.8499.595,1.1846.099,2.1717-1.092,2.5666-2.282.8884-4.267.3948-5.557-.9872-.893-.8884-1.29-2.073-1.489-3.3563-.198-.9871-.198-1.9743-.099-2.9614.199-1.9743.298-3.9486.496-5.9229c0-.2961,0-.4935,0-.7897-.297.0987-.297.3949-.397.5923-.893,2.4679-1.786,4.9357-2.183,7.601c0,.1974-.099.3949-.099.691-.099,1.1846-.496,1.6782-1.687,1.9743-2.084.5923-3.97.2961-5.657-1.2833-1.191,1.6782-2.481,2.9614-4.664,2.764-1.985-.0987-3.473-1.1846-4.367-3.0601-.992.7897-1.885,1.7768-3.274,1.8755-1.39.0987-2.481-.3948-3.573-1.2832-1.191,1.8755-2.878,2.9614-5.161,2.8627-2.282-.0987-3.771-1.2833-4.664-3.3563-.397.0987-.496.3948-.694.691-.596.7897-1.291,1.4807-2.184,1.9743-1.687.8884-3.473.2961-4.763-1.0859-.695-.691-1.092-1.5794-1.489-2.4679-.099-.2961-.198-.4935-.297-.8884-.199.9872-.199,3.0602.198,3.8499.595,1.1846,0,2.1717-1.092,2.5666-2.282.8884-4.366.3948-5.656-.9872-.893-.8884-1.191-2.073-1.39-3.2576-.198-.9871-.198-1.8755-.099-2.8627.199-1.9743.298-4.0473.496-6.0216c0-.2961,0-.4935,0-.7897-.198,0-.198.0987-.297.2962-.893,2.5665-1.886,5.1331-2.283,7.8971c0,.2962-.099.4936-.099.7897-.099,1.1846-.496,1.5795-1.687,1.9743-1.687.4936-3.275.3949-4.764-.5923-.893-.5923-1.389-1.382-1.687-2.3691-.595-2.1717-.595-4.4422-.496-6.7126.099-2.3691.397-4.7383.695-7.0087c0-.2962.099-.5923.198-.8884.199-.5923.496-.9872,1.092-.9872c2.183-.2961,4.267-.1974,6.054,1.2833.396-.7897.793-1.4807,1.29-2.1717.496-.7897,1.091-1.5795,1.885-2.1717.496-.3949.993-.5923,1.588-.5923c2.382,0,4.366.7897,5.756,2.8627.397.691.496,1.4807.794,2.2704.297-.0987.297-.3948.397-.5923.397-.7897.893-1.5794,1.488-2.1717c1.687-1.6781,3.573-2.2704,5.855-1.6781.298.0987.497.1974.894.1974.099-.691.099-1.382.198-2.073.198-2.4679.397-4.9357.595-7.3049.1-.5923.199-1.1845.298-1.7768.099-.691.596-1.1846,1.29-1.382c1.787-.2962,3.374-.0987,4.863.8884.992.691,1.489,1.7769,1.29,2.9614-.595,3.2576-.893,6.6139-1.092,9.9702-.297,3.7511-.496,7.601-.496,11.3522c0,.3948,0,.691,0,1.1845.397-.4935.397-.9871.496-1.4807.1-1.5794.298-3.1589.695-4.7383s1.092-3.0601,2.382-4.2447c1.885-1.6781,4.069-2.2704,6.45-1.4807.497.0987.794.2961,1.191-.1974s1.092-.4936,1.787-.5923c1.091-.0988,2.183.0987,3.175.4935c1.588.5923,2.183,1.9743,1.687,3.5538-.397,1.382-.694,2.764-.893,4.2447-.198.5923-.397,1.1845-.298,2.073.397-.7897.497-1.382.596-1.9743Zm6.55,3.2576c-.1-.2962,0-.5923,0-.9872.099-1.9743.397-3.8498.694-5.8241.1-.8885-.099-1.2833-.893-1.5795-.992-.3948-2.084-.3948-3.176-.3948-.396,0-.595.1974-.595.691-.099,1.1846-.198,2.3691-.397,3.6524-.099.5923.298,1.382-.695,1.6782-.198.0987-.198.5922-.297.8884-.496,1.9743-.993,3.9486-1.787,5.8241-.198.5923-.496,1.1846-.893,1.6782-.397.3948-.595.2961-.794-.1974-.099-.1975-.099-.4936-.099-.7898c0-.9871-.099-1.9742,0-2.9614.298-3.2576.695-6.5151,1.588-9.674.198-.8884,0-1.382-.893-1.7769-.893-.2961-1.787-.3948-2.68-.2961-.694.0987-.794.1974-.992.8884-.099.3949,0,.8885-.199,1.2833-.198,0-.297-.0987-.396-.2961-1.688-1.8756-5.26-2.073-7.245.4935-.496.691-.893,1.382-1.191,2.1718-.397,1.1845-.694,2.4678-.794,3.7511-.099,1.9743-.496,3.9486-1.389,5.7254-.199.4936-.397.8885-.794,1.2833-.496.4936-.893.3949-1.092-.2961-.297-.8884-.297-1.8756-.397-2.8627c0-2.764,0-5.4293.1-8.1933.297-5.1332.595-10.2663,1.488-15.3995.199-.9871-.198-1.5794-1.091-1.9743-.695-.3948-1.489-.4935-2.382-.4935s-.992.0987-1.191.9871c0,.1974,0,.3949-.099.5923-.397,4.0473-.695,8.1933-.993,12.2406c0,.1974,0,.2961-.198.3948-.199-.1974-.298-.3948-.496-.4935-1.787-1.8756-4.367-1.9743-6.252-.0987-.993.9871-1.687,2.2704-2.084,3.6524-.893,3.3563-1.191,6.7126-.596,10.1676.298,1.4807.794,2.8627,1.787,4.0473c1.29,1.4807,2.58,1.4807,3.969.1974.992-.8884,1.687-2.073,2.283-3.1589.297-.5923.595-1.0858.893-1.7768.198.4935.198.8884.198,1.2833.099.9871.298,1.8755.695,2.764c1.29,2.6653,4.863,2.8627,6.55.691.496-.691.893-1.382,1.191-2.073.099-.1975.099-.4936.396-.5923.298.4935.596.9871.894,1.4807c1.091,1.2833,2.778,1.9743,4.465.1974.894-.8884,1.588-1.9743,2.184-3.0601.099-.1975.099-.5923.496-.5923-.199,1.2833-.099,2.4678.298,3.6524.496,1.2833,1.488,2.073,2.778,2.2705s2.184-.4936,2.977-1.382c.397-.3949.695-.8885.894-1.4808.297-.5923.496-1.1845.793-1.8755.1-.1975,0-.4936.397-.4936c0,.5923.1,1.1846.298,1.7768.298.7898.695,1.4808,1.489,1.8756.992.4936,2.084.4936,3.175.0987.298-.0987.397-.2961.497-.5923.099-.5922.099-1.1845.297-1.6781.993-4.3434,2.481-8.4894,4.367-12.5367.298-.5923.595-1.0859.893-1.5795.099-.1974.198-.3948.496-.2961.099,1.0859.099,2.2704,0,3.455-.298,3.6524-.595,7.3049-.794,10.9573-.099,1.382,0,2.6653.496,3.9486.894,1.8756,2.779,2.2704,4.466,1.5794.397-.0987.496-.2961.298-.691-.298-.5923-.298-1.2833-.397-1.9743-.199-3.6524,0-7.4036.298-11.056.099-1.382.297-2.6653.297-4.0473.1-2.6653-1.29-4.2447-3.87-4.7383-1.092-.1974-1.885.0987-2.58.9872-.596.691-1.092,1.4807-1.489,2.3691-1.29,2.5666-2.282,5.3306-3.275,8.0946.397-.0987.397.2961.1.4936Zm22.626,2.6653c.199.4935.199.9871.199,1.382.099,1.0858.397,2.073.893,2.9614c1.389,2.2704,4.366,2.4679,6.153.4936.595-.691,1.091-1.4808,1.389-2.3692.893-2.2704,1.191-4.6396,1.191-7.1074c0-.8885-.397-1.7769-.893-2.764-.199,1.0858-.298,1.9743-.397,2.764-.298,1.9743-.695,3.9486-1.489,5.8241-.198.4936-.397.8885-.794,1.2833-.595.5923-.893.4936-1.191-.2961-.297-.9872-.297-1.9743-.397-3.0602-.099-4.4421.1-8.8843.397-13.3264.1-1.7769.298-3.5537.496-5.3306.1-1.5794.397-3.0601.596-4.6396.198-1.0858-.099-1.6781-1.092-2.073-.794-.3948-1.687-.4936-2.58-.4936-.496,0-.794.1975-.794.691-.099.8885-.198,1.7769-.298,2.6653-.297,3.455-.595,7.0088-.793,10.4638c0,.1974,0,.2961-.199.3948-.198-.0987-.298-.2961-.496-.4935-1.886-1.9743-4.466-2.073-6.451,0-.992.9871-1.587,2.1717-1.885,3.455-.893,3.3562-1.191,6.7125-.596,10.0688.298,1.4807.794,2.8627,1.787,4.0473c1.29,1.4807,2.58,1.4807,3.969.1975.993-.8885,1.687-2.0731,2.283-3.1589.397-.3949.694-.9872.992-1.5794ZM115.6,54.4331c-.199-.3949-.099-.691-.099-.8885.198-1.9743.397-3.8498.694-5.8241.1-.9872-.099-1.382-.992-1.6782-.893-.2961-1.886-.2961-2.878-.2961-.695,0-.695,0-.794.7897-.397,2.4679-.595,4.837-.695,7.3049-.099,1.5794-.099,3.1588.1,4.6396.198,1.2832.496,2.3691,1.786,2.9614.992.4936,2.084.4936,3.176.0987.297-.0987.397-.2961.496-.5923.099-.5923.099-1.1846.298-1.6781.992-4.3435,2.481-8.4895,4.366-12.5368.298-.5922.596-1.0858.893-1.5794.099-.1974.199-.3948.596-.2961c0,.3948,0,.691,0,1.0858c0,2.5666-.298,5.1332-.496,7.601-.199,2.2705-.397,4.4422-.397,6.7126c0,1.0859.198,2.1717.694,3.1589.993,1.8756,3.474,2.073,4.764.9871-.1-.3948-.298-.691-.397-1.0858c0-.3949-.1-.7897-.199-1.0859-.297-3.7511,0-7.4036.298-11.1547.099-1.382.298-2.764.298-4.0473c0-2.6653-1.39-4.2447-3.97-4.6396-.992-.1974-1.786.0987-2.382.8884-.496.691-.992,1.382-1.389,2.073-1.389,2.6653-2.481,5.4293-3.473,8.292c0,.0988-.199.3949-.298.7898Z" fill="#41332b"/><path d="M29.2618,44.3642c-.2977.0987-.4962.1974-.5954.1974-2.6795,1.0859-5.1604-.0987-6.5498-1.8756-1.2901-1.5794-1.7863-3.455-2.084-5.4292-.4962-3.8499.1985-7.5023,1.3893-11.0561.2978-.9871.8932-1.8755,1.4886-2.764c1.5879-1.9743,3.5726-2.6653,6.0536-2.2704c1.1909.1974,2.3817.4936,3.3741,1.1846c1.5879,1.0858,2.481,2.4678,3.0764,4.2447.4962,1.6781.6947,3.2576.6947,5.0344.0993,4.6396.5955,9.3779,1.1909,14.0175.2977,2.8627.6947,5.7254,1.1909,8.5881c0,.0988,0,.1975.0992.4936.2977-.9871.2977-1.8756.4962-2.6653.9924-6.8113,2.084-13.6226,3.8703-20.2364.9924-3.6525,2.084-7.2062,3.8703-10.5625.4962-.8884.9924-1.6781,1.5879-2.4678c1.9847-2.5666,4.4657-3.455,7.7406-2.8628c2.3817.4936,3.8703,1.8756,4.7635,3.9486c2.084,4.5409,1.9847,9.1805-.2978,13.6226-1.5878,3.0602-4.168,4.2447-7.5421,3.5537-.7939-.0987-1.4886-.2961-2.1833-.5923-1.1908-.3948-1.4886-1.7768-.5954-2.6652.4962-.4936.8931-1.0859,1.0916-1.6782c1.3894-3.2576,2.1833-6.6139,2.2825-10.1676c0-.2961.0993-.5923-.0992-.8884-.397.0987-.4962.3948-.6947.691-.9924,1.5794-1.6871,3.3563-2.2825,5.0344-1.4886,4.3435-2.481,8.7856-3.2749,13.3265-.9924,5.528-1.7863,11.056-2.8779,16.584-.2977,1.4807-.5954,3.0602-1.0916,4.5409-.0993.3948-.2978.8884-.4962,1.2832-1.1909,2.6653-2.7787,3.3563-5.7559,2.8628-2.2825-.3949-3.8703-1.7769-4.8627-3.7512-.8932-1.5794-1.2901-3.3563-1.5878-5.2318-.4962-2.764-.6947-5.6268-.9924-8.4895-.1985-1.0858-.2977-2.2704-.397-3.5537Zm22.0311-9.3779c.8931.3949,1.687.4936,2.5802.5923c2.2825.2962,3.9695-.5923,5.1604-2.5666.1985-.3948.397-.691.5955-1.0858.9923-2.1717,1.3893-4.4422,1.0916-6.8113-.1985-1.8756-.5955-3.6525-1.5878-5.2319-.4962-.8884-1.0917-1.6781-2.0841-2.073-2.2825-.8884-4.7634-.9871-6.649.8884-.8931.8885-1.5878,1.8756-2.1832,2.9615-1.0917,1.9743-1.9848,4.146-2.6795,6.3177-2.481,7.3049-3.6718,14.9059-4.7635,22.5069-.4961,3.2576-.8931,6.5151-1.3893,9.7727-.0992.4936-.0992.9872-.4962,1.4807-.3969-.2961-.4962-.691-.6947-1.0858-.2977-.9872-.5954-1.9743-.7939-3.0602-.7939-3.9485-1.2901-7.8971-1.7863-11.9444-.4962-4.7383-1.0916-9.4766-1.1908-14.2149c0-1.0859-.0993-2.2704-.2978-3.3563-.5954-3.2576-2.3817-5.0344-5.5573-5.6267-1.6871-.2962-3.0765.1974-4.2673,1.382-.6947.691-1.1909,1.5794-1.4886,2.4679-1.2901,3.5537-1.7863,7.2061-1.2901,10.9573.1985,1.382.5954,2.764,1.4886,3.9485.6946.9872,1.687,1.7769,2.8779,1.9743.8932.1975,1.6871,0,2.5802-.5923-1.7863-.1974-2.6794-1.1845-3.3741-2.4678-.2977-.5923-.4962-1.1846-.6947-1.7769-.9924-3.8498-.7939-7.6997.4962-11.4509.2977-.7897.6947-1.4807,1.1909-2.1717.7939-.8884,1.5878-.7897,1.9848.3949.3969.9871.5954,1.9743.7939,3.0601.7939,5.0345,1.1908,10.0689,1.687,15.1033.397,3.9486.6947,7.9959,1.1909,11.9445.2977,1.9743.6947,3.8498,1.5878,5.6267c1.0917,2.1717,2.9772,3.1589,5.4582,2.9614.7939-.0987,1.3893-.3948,1.7863-.9871.4962-.5923.7939-1.2833.9924-1.9743.4962-1.382.8931-2.8627,1.0916-4.3434.9924-5.1332,1.7863-10.2663,2.6794-15.3995.794-4.5408,1.6871-9.0817,3.0765-13.5239.6946-2.2704,1.4885-4.5408,2.6794-6.6138.397-.5923.7939-1.2833,1.2901-1.7769.397-.3948.8932-.691,1.4886-.4936.5954.1975.6947.691.7939,1.1846.0992.7897.1985,1.5794.1985,2.3692-.1985,1.8755-.397,3.7511-.8932,5.6267-.3969,2.764-.9924,5.1331-2.6794,7.1074ZM28.9641,41.304c-.4962-4.9357-.8931-9.8714-1.8855-14.8071-.1985.1974-.1985.1974-.2977.2961-.0993.1975-.1985.3949-.2978.5923-1.0916,2.5666-1.2901,5.3306-1.0916,8.0946.0992,1.382.397,2.8627,1.0916,4.146.4962.9871,1.1909,1.6781,2.481,1.6781Z" fill="#41332b"/><path d="M87.4161,55.8148c-.6947-.4936-1.3893-.8884-1.7863-1.4807-1.2901-1.6782-1.687-3.6525-1.4886-5.7255.2977-3.3563,1.9848-5.9228,4.962-7.4036c1.7863-.8884,3.7711-1.0858,5.7558-.8884.7939.0987.794.1974,1.1909-.691c1.7863-4.3434,3.5726-8.6869,4.7631-13.3264.1-.3949.199-.8885.298-1.2833.099-.7897.596-1.2833,1.29-1.382.596-.0987.794-.4936.893-.9872.298-1.5794.695-3.1588,1.191-4.7383.397-1.2833.993-1.6781,2.283-1.382c1.191.2962,2.381.5923,3.473,1.2833c1.489.8885,2.183,2.073,1.886,3.8499-.298,1.8756-.695,3.6524-1.092,5.4293-1.389,6.3177-2.183,12.6354-2.481,19.1506-.198,4.9357-.397,9.7727-.298,14.7084c0,1.5795,0,3.2576.397,4.837.099.5923-.099,1.0859-.397,1.4808-.992,1.0858-2.183,1.5794-3.572,1.382-1.687-.1975-2.68-1.1846-3.275-2.764-.298-.7898-.397-1.5795-.496-2.3692-.298-4.837-.199-9.674-.199-14.511c0-.691-.198-1.0859-.893-1.382-1.2901-.5923-1.2901-.5923-1.8856.691-2.1832,4.5409-4.3665,9.1804-7.0459,13.4252-.4962.7897-1.0917,1.5794-1.6871,2.3691-1.4886,2.073-3.5726,2.3691-5.8551,1.9743-3.2749-.5923-4.4657-3.9486-3.9695-6.3177.1984-1.0859,1.2901-1.7769,2.1832-1.1846c1.0916.5923,1.9848.2961,2.9772-.1974c1.0916-.5923,1.9848-1.5795,2.8779-2.5666Zm-6.4505,4.2447c-.4962,1.382.2977,3.7512,1.7863,4.3434s3.8703.8885,5.2597-1.0858c.8931-1.2833,1.8855-2.5666,2.6794-3.9486c2.481-4.2447,4.565-8.5882,6.649-13.0303.4962-1.0859.1985-1.0859,1.5878-.5923.9924.2962,1.7862.8884,2.7792,1.1846.496.0987.595.2961.595.7897c0,1.4807-.099,2.8627-.099,4.3434c0,3.9486-.1,7.7985.198,11.7471.099.8884.199,1.6781.695,2.4678.794,1.2833,2.481,1.4807,3.572.3949.199-.1975.397-.3949.298-.691-.397-1.6782-.298-3.455-.397-5.1332-.099-4.9357.099-9.7727.397-14.7084.099-2.2705.199-4.4422.496-6.7126.397-4.3434,1.191-8.6869,2.184-13.0303.397-1.6782.794-3.3563.893-5.0345.099-.8884-.298-1.4807-.993-1.8755-.893-.5923-1.885-.8885-2.977-1.1846-.694-.1974-.694-.1974-.893.4936-.496,1.6781-.893,3.3563-1.191,5.0344-.099.691-.397,1.1846-1.191,1.1846-.496,0-.794.2961-.893.7897-.496,2.5666-1.389,5.0344-2.282,7.5023-.9927,2.764-2.0843,5.4293-3.2752,8.1933-.2977.691-.2977.691-1.0916.5923-.9924-.1975-2.084-.2962-3.0764-.1975-2.6795.1975-4.7635,1.2833-6.1528,3.5538-1.2901,2.1717-1.4886,4.6395-.2978,7.1074.6947,1.382,1.7863,2.073,3.3742,1.9743.0992,0,.2977-.0987.3969.0987-.8931,1.382-1.9848,2.764-3.1756,3.8499-.6947.5923-1.3894,1.1845-2.2825,1.5794-1.1909.5923-2.3818.691-3.5726,0Z" fill="#41332b"/><path d="M60.8203,46.733c.4962-1.1846,1.0917-2.2704,1.8856-3.1589c1.1908-1.4807,2.6794-2.4678,4.6642-2.764c1.1909-.0987,2.2825.1975,3.3741.691.6947-.8884,1.5878-1.2832,2.6795-1.1845c1.5878.1974,3.0764.4935,4.168,1.6781.5954.691.7939,1.4807.6947,2.3692-.0993,1.1845-.2977,2.3691-.4962,3.5537-.0993.8884-.1985,1.7768-.1985,2.6653.397,0,.397-.3949.4962-.5923.397-.691.9924-.9872,1.7863-.7897c1.6871.2961,2.5802,1.5794,2.1833,3.2575-.1985.691-.4962,1.382-.8932,1.9743-.9924,1.4807-2.1832,2.764-3.3741,4.0473-.2977.3949-.4962.691-.4962,1.1846-.0992,2.8627-.4962,5.6267-1.3894,8.3907-.5954,1.9743-1.5878,3.7512-3.3741,4.9357-2.084,1.382-5.0612,1.382-7.0459-.0987-1.6871-1.2833-2.3818-3.0601-2.0841-5.1331.1985-1.6782.9924-2.9615,1.9848-4.2447.2977-.3949.6947-.7898.9924-1.382-2.1833-.1975-3.7711-1.2833-5.0612-3.0602-.3969.1974-.4962.4936-.6947.7897-1.1908,1.5795-2.6794,2.764-4.6642,3.1589-2.1832.3948-3.8703-.2962-5.3589-1.7769-.6947-.7897-1.1909-1.6781-1.4886-2.6653-1.2901-4.3434-1.4886-8.6868-.1985-13.129.397-1.5794,1.0917-3.0601,2.5803-3.8498c1.8855-1.0859,3.9695-1.382,6.0535-.4936c1.2901.5923,2.0841,1.5794,2.3818,2.9614.5954.7897.7939,1.6782.8931,2.6653Zm11.214,10.365c0,1.6782,0,1.6782-.8931,2.6653-.397.3949-.7939.7897-1.0917,1.1846-1.2901,1.382-2.5802,2.6653-3.6718,4.146-.5954.8884-1.0916,1.7768-1.2901,2.8627-.397,2.073.7939,3.9486,2.8779,4.4422s3.8704-.0988,5.1605-1.8756c.8931-1.1846,1.3893-2.4679,1.7863-3.8499.6946-2.3691.9923-4.837.9923-7.4036c0-.5922.1985-1.0858.5955-1.5794.8931-.8884,1.687-1.7769,2.481-2.6653.5954-.691,1.0916-1.382,1.4885-2.073.1985-.3948.397-.8884.2978-1.382-.0993-.3948-.4962-.7897-.8932-.7897s-.3969.2961-.4962.5923c-.4962,1.0858-1.2901,1.9743-2.1832,2.764-.2978.2961-.5955.691-1.1909.8884.0992-2.4678.0992-4.7383.3969-7.1074.1985-1.1846.2978-2.3692.4962-3.455.0993-.8885-.2977-1.4807-1.0916-1.8756-.6947-.3949-1.4886-.5923-2.2825-.691-.9924-.0987-1.2901.0987-1.3893,1.1846c0,.4935,0,1.0858-.0993,1.5794c0,.1974.0993.3949-.0992.5923-.0993-.1974-.1985-.2962-.1985-.3949-1.1909-2.8627-4.565-3.3563-6.8475-1.4807-.7939.691-1.3893,1.4807-1.8855,2.3692-.4962.9871-.8932,1.9743-1.1909,3.0601-.1985.0987-.1985-.1974-.3969-.1974c0,.2961,0,.5923,0,.8884-.2978,3.1589-1.3894,5.8242-3.5726,8.1933-.397.3949-.6947.691-1.1909.9871-.5955.3949-1.0916.2962-1.4886-.3948-.0992-.1974-.1985-.3949-.2977-.5923-.4962-1.6781-.5955-3.2576-.4962-5.0344c1.5878.4935,2.6794-.2962,3.4734-1.4807.5954-.7898.8931-1.6782.9923-2.6653.2978-1.4808.397-2.8628-.0992-4.3435-.4962-1.382-1.4886-2.073-2.9772-2.1717-.5954,0-1.1908,0-1.7863.1974-1.1908.1975-1.9847.8885-2.5802,1.9743-.3969.691-.6947,1.4807-.8931,2.2705-.6947,2.9614-.6947,5.8241-.2978,8.7855.1985,1.2833.4962,2.5666,1.0917,3.7512.6946,1.382,1.7863,2.2704,3.3741,2.4679c1.4886.1974,2.7787-.3949,3.8703-1.382c1.1909-1.0859,1.9848-2.3692,2.481-3.8499.0992-.2962.0992-.5923.4962-.8884.0992.3948.1985.691.2977.9871.4962,1.2833,1.1909,2.3692,2.1833,3.1589c1.1908.9871,2.5802,1.2833,4.0688.691c1.1908-.3949,2.1832-1.1846,2.9771-2.1718.397-.0987.5955-.3948.9924-.8884Zm-15.8782-.0987c1.3893-.9871,2.7787-3.2576,2.9772-4.837-.5955.8884-1.2901,1.5794-2.1833,1.9743-.397.1974-.8932,0-.9924.4936-.0992.3948,0,.7897.0992,1.1845c0,.3949.0993.691.0993,1.1846Z" fill="#41332b"/><path d="M205.61,55.2227c0-2.8627,0-5.8241,0-8.6869c0-.3948-.099-.7897-.397-1.0858-4.962-4.4422-6.649-13.82-.695-20.5326c4.466-5.0345,10.222-7.1075,16.871-6.3177c4.664.5922,8.832,2.4678,11.909,6.0215c4.763,5.4293,5.954,11.7471,3.076,18.4596-2.084,4.837-6.053,7.601-11.214,8.7856-1.687.3949-3.374.3949-5.061.1974-.595-.0987-.893,0-1.29.3949-3.771,3.9486-7.443,7.7984-11.214,11.6483-.199.2961-.496.4936-.695.7897-.198.1974-.496.3949-.893.1974-.397-.1974-.595-.3948-.595-.7897c0-.2961,0-.4935,0-.7897c0-2.764.099-5.6267.099-8.3907c0,.0987.099.0987.099.0987Zm29.474-13.3264c-.496-.1975-.893-.0988-1.389.0987-.298.0987-.596.2961-.893.4935-.1.0988-.298.0988-.298,0-.099-.0987,0-.1974.099-.2961.298-.1974.595-.3949.893-.5923.496-.1974,1.092-.2961,1.588-.1974.298,0,.595-.3949.595-.7897s-.297-.3949-.496-.3949c-.496-.0987-.992.0987-1.389.3949-.099.0987-.199.0987-.298,0-.099-.1975-.099-.2962.099-.3949.497-.3948.993-.4936,1.588-.4936.794.0988.794.0988.893-.7897.199-1.5794.298-3.1588,0-4.7383-.496-3.5537-1.984-6.6138-4.565-9.0817-5.656-5.4293-14.389-6.6139-21.336-2.764-4.962,2.6653-8.634,7.8972-7.741,14.4123.397,3.0602,1.687,5.7254,4.069,7.7985.596.4935.794.9871.794,1.6781-.099,5.1331-.198,10.1676-.198,15.3007c0,.2962-.1.5923.198.7897c1.489-1.5794,2.977-3.0601,4.466-4.6395-.199-.3949-.596-.4936-.794-.691-.298-.1975-.496-.3949-.794-.5923-.198-.0987-.298-.1974-.198-.4936.099-.1974.297-.0987.397,0c.496.2962.893.5923,1.389.8884.198.0988.298.2962.496.0988.596-.2962.695-.8885.099-1.2833-.198-.0988-.397-.1975-.595-.1975-.199,0-.397,0-.397-.2961c0-.1974.298-.1974.496-.1974.397,0,.695.1974.993.3948.198.1974.297.3949.595.4936c1.489-1.4807,2.977-3.0602,4.466-4.6396.694-.691,1.389-.8884,2.282-.7897c2.084.2961,4.069.1974,6.054-.4936.595-.1974.595-.1974.297-.691-.297-.5923-.595-1.1845-.893-1.7768-.099-.1975-.099-.2962.1-.3949.198-.0987.297,0,.397.1974.198.3949.396.691.595,1.0859.695,1.382.695,1.382,2.183.4936-.397-.5923-.694-1.2833-1.091-1.8756-.1-.1974-.397-.3949-.1-.5923.298-.1974.397.1974.497.3949.297.3948.496.7897.694,1.2833.397.691.298.7897,1.092.2961c1.687-1.0859,3.176-2.5666,4.168-4.2447.397-.691.794-1.2833.893-2.1717Z" transform="matrix(1.00489 0.069927 0.069927 1-3.995816-15.336607)" fill="#41332b"/><path d="M5.64319,23.7327c.59543-1.5794,1.58782-2.5666,3.17565-2.8627.39695-.0987.79391,0,1.09163.0987.79393.2961.99243,1.0859.59543,1.7769-.1985.2961-.397.4935-.59543.7897.29773.1974.59543.0987.89313,0c.8932,0,1.6871.1974,2.3818.8884.1984.1974.3969.4936.5954.7897.3969.9872,0,1.6782-1.0916,1.6782-1.1909-.0987-2.1833.5923-3.37417.7897.19848.4936.4962.691.69467.8884c1.4886,1.5794,2.7787,3.3563,3.7711,5.3306.7939,1.5794-.2977,2.5666-1.6871,2.5666-.7939,0-1.3893-.2962-1.5878-1.1846-.4962-1.8756-1.48858-3.455-2.48097-5.0344-.19848-.1975-.29772-.4936-.59544-.4936-.59543-.0987-.69467-.0987-.89315.4936-.19848.4935-.39696.9871-.39696,1.5794c0,.691-.39695,1.4807-.79391,2.073s-1.09163.5923-1.68706.0987c-.79391-.7897-1.09163-1.7769-1.09163-2.8627c0-.2962,0-.5923,0-.9872-.29772.1975-.49619.3949-.79391.5923-.793912.3949-1.488585.1975-1.687063-.691-.297717-1.382.198478-2.4678,1.190863-3.3563.29772-.2961.69468-.4935,1.09163-.7897-.29771-.2961-.79391-.1974-1.19086-.2961-1.190872-.2962-1.38935-.8884-.694677-1.7769.694677-.9871,1.786297-1.1846,2.877927-1.0858.79392,0,1.48859.3948,2.2825.9871Zm-1.7863,6.6139c0,.4935,0,.9871,0,1.5794.29772,0,.19848-.3949.39695-.2961.19848,0,.39696,0,.39696-.2962c0-.4936-.09924-.9871.49619-1.2833.09924,0,.09924-.1974.09924-.2961-.09924-.3949.19848-.691.4962-.8884.19848-.0988.29772-.2962.29772-.4936-.4962-.0987-.79392.2961-1.19087.2961c0-.2961-.09924-.4935-.39696-.2961-.99239.5923-1.38934,2.4678-.79391,3.5537.09924-.4936-.19848-1.0859.19848-1.5794Zm3.67184-3.8499c-.09924-1.0858,0-1.6781.29772-1.8756.79391-.5922,1.19087-1.5794,1.88554-2.2704.29771-.2961.09924-.4936-.19848-.5923s-.59543,0-.89315,0c-1.19087.2962-1.88554,1.0859-2.18326,2.1717-.09924.4936-.09924.9872-.19848,1.4808-.49619-.2962-.69467-.5923-.99239-.8885-.49619-.5923-1.19086-.8884-1.98478-1.0858-.89315-.1975-1.88554.1974-2.282492,1.0858c1.389342.1975,2.778692.5923,3.969562,1.7769-.39696,0-.59544,0-.79391,0-1.19087,0-2.08402.4936-2.87794,1.382-.396951.4936-.694668,1.0858-.595429,1.7768c0,.1975.099239.3949.396959.4936.19847,0,.29771-.0987.49619-.2961.69467-1.1846,1.88554-1.7769,3.07641-2.2705c1.09163-.3948,1.98478,0,2.2825,1.0859.09924.2961.09924.4936.39695.4936.39696,0,.4962-.1975.59544-.5923.19848-1.0859.99239-1.5794,1.88554-1.8756.99237-.1974,1.88557-.7897,2.97717-.5923-.0992-.691-.4962-1.0858-.9924-1.1845-.7939-.1975-1.4886-.2962-2.28249.0987-.69467.2961-1.38934.7897-1.98478,1.6781Zm1.09163,3.0602c.29772.4935.4962.8884.79391,1.2832.69463,1.0859,1.38933,2.1718,1.68703,3.4551.0993.1974.0993.4935.4962.5922s.4962-.1974.5955-.4935c.0992-.0988.0992-.1975.1984-.2962.1985-.3948.0993-.7897-.3969-.8884-.0993,0-.397,0-.2977-.1974.1984-.5923-.0993-.8885-.5955-1.0859-.1984-.0987-.1984-.1974-.2977-.3949c0-.4935-.0992-.8884-.7939-.8884-.19847,0-.09923-.0987-.09923-.2961c0-.7897-.29772-.9872-1.29011-.7897ZM5.24623,27.8787c-.09924,0-.19847.0987-.19847.1974s.09923.0988.09923.0988c.09924,0,.19848-.0988.19848-.1975.09924-.0987,0-.0987-.09924-.0987Z" transform="translate(.000001 0)" fill="#41332b"/><path id="ekf9M8SaQIs8" d="M229.228,3.79244c.199-.29614.298-.59229.497-.88843.396-.78971.893-1.48072,1.587-2.073002c1.886-1.678145,4.168-.592287,4.863,1.283292.397,1.08585.397,2.17171.099,3.25757-.694,3.35629-2.183,6.31773-4.366,8.98303c0,0,0,.0987-.099.0987-1.291,1.4807-2.184,1.5794-3.672.2961-2.779-2.4678-4.962-5.33054-6.153-8.98297-.298-.88843-.397-1.77686-.199-2.764.596-2.270436,2.878-3.158866,4.764-1.87558.794.59229,1.488,1.28329,2.084,2.073.198.29615.198.49358.595.59229Zm0,1.87558c-.397-.39486-.694-.98715-.992-1.48072-.596-.88843-1.29-1.67815-2.183-2.27043-1.687-1.085862-3.275.29614-3.474,1.57943-.099.59228-.099,1.18457.1,1.77686c1.091,3.55372,3.274,6.41644,5.954,8.88434c1.092.9871,1.389.8884,2.382-.1975c0,0,0,0,.099-.0987c2.183-2.764,3.771-5.82414,4.366-9.27914.199-.88843.1-1.87558-.397-2.66529-.694-1.184576-1.984-1.382005-3.076-.59229-.397.29614-.695.691-.992,1.08586-.497.78971-.894,1.57943-1.29,2.46786-.1.29614-.1.59229-.497.78972Z" transform="matrix(.8 0 0 0.8 45.816849 1.564345)" fill="#41332b"/><path d="M18.8423,57.3943c0,.7897-.4962,1.382-1.0917,1.5794-.6946.1975-1.4885-.0987-1.7863-.7897-.4962-.9871-.8931-1.9743-1.2901-2.9614-.2977-.7897.0993-1.6782.7939-1.8756.794-.2961,1.6871-.0987,2.0841.691.4962.9872.8931,1.9743,1.2901,2.9615c0,.0987,0,.2961,0,.3948Zm-3.2749-2.5666c0,.1975.0992.4936.1985.691.2977.691.5954,1.4808.9923,2.1718.1985.3948.4962.4935.8932.2961.2977-.0987.4962-.3949.2977-.691-.3969-.8884-.7939-1.8756-1.1909-2.764-.0992-.2961-.3969-.4936-.7939-.3949-.3969,0-.3969.2962-.3969.691Z" fill="#41332b"/><path d="M16.3609,50.7807c0,.8885-.4962,1.4807-1.1909,1.6782-.6947.0987-1.4886-.1975-1.6871-.8885-.3969-1.0858-.6946-2.1717-.8931-3.3562-.0992-.691.3969-1.382,1.0916-1.6782.6947-.1974,1.4886.0987,1.7863.691.4962,1.1846.6947,2.4679.8932,3.5537Zm-2.878-2.6653c.1985.9872.397,1.9743.794,2.9615.0992.3948.3969.4935.7939.3948s.5954-.3948.4962-.7897c-.1985-.9871-.4962-1.8756-.7939-2.8627-.0993-.2961-.2978-.5923-.6947-.4936-.4962.1975-.6947.4936-.5955.7897Z" fill="#41332b"/><path d="M62.3087,79.704c-1.1909,0-1.8856-.4936-1.9848-1.4807-.0992-.7897.5954-1.4807,1.4886-1.6781.8931-.0988,1.7863-.2962,2.7787-.3949c1.1908-.0987,2.084.9871,1.687,2.073-.1984.4936-.4961.7897-.9923.8884-.2978.0987-.5955.0987-.8932.1975-.6947.1974-1.4886.2961-2.084.3948Zm.2977-.9871c.6947.0987,1.3894-.1975,2.1833-.1975.3969,0,.6946-.2961.6946-.691s-.1984-.5922-.7939-.5922c-.8931,0-1.7863.1974-2.6794.1974-.1985,0-.2978.0987-.397.1974-.2977.0987-.2977.3949-.2977.691s.1985.3949.4962.4936c.2977-.0987.4962-.0987.7939-.0987Z" fill="#41332b"/><path d="M23.4069,64.9956c.397,0,.6947.0987.9924.3949.6947.691,1.3894,1.382,2.084,2.073.5955.691.6947,1.5794.0993,2.1717s-1.5879.691-2.2825.0987c-.7939-.691-1.5878-1.4807-2.2825-2.2704-.397-.3949-.4962-.9872-.1985-1.4807.397-.5923.7939-.9872,1.5878-.9872Zm2.6795,3.5537c0-.0987,0-.1974-.0993-.1974-.7939-.7897-1.5878-1.5794-2.3817-2.3691-.1985-.1975-.4962-.0988-.6947.0987-.1984.1974-.3969.4935-.1984.7897.0992.1974.2977.4936.4961.691.4962.5923,1.0917,1.1846,1.6871,1.6781.1985.1975.4962.2962.7939,0c.2977-.1974.397-.3948.397-.691Z" fill="#41332b"/><path d="M19.1399,59.4673c.4962.0987,1.0916.1974,1.3893.691.4962.8884,1.0917,1.5794,1.5879,2.3691.3969.5923.3969,1.1846,0,1.6782-.5955.8884-1.7863,1.0858-2.481.1974s-1.4886-1.8756-1.8856-2.9614c-.3969-.8885.2978-1.9743,1.3894-1.9743Zm2.3817,3.9486c0-.0988,0-.0988,0-.1975-.5954-.8884-1.0916-1.7768-1.7863-2.6653-.1985-.2961-.5954-.2961-.8931-.0987s-.2977.4936-.0993.7897c.4962.7898.9924,1.5795,1.5879,2.3692.0992.0987.1984.1974.2977.2961.1985.1975.3969.1975.5954.0987.0992-.0987.2977-.2961.2977-.5922Z" fill="#41332b"/><path d="M50.4992,80.0002c-.7939-.0988-1.687-.0988-2.5802-.1975-.6947-.0987-1.1909-.4935-1.3893-1.1845-.1985-.5923,0-1.1846.4962-1.5795.2977-.2961.6946-.3948,1.0916-.2961c1.0916.0987,2.084.1974,3.1756.2961.5955.0987.9924.4936,1.1909.9872.1985.5923.0992,1.1845-.3969,1.5794-.4962.3949-.9924.3949-1.5879.3949Zm-.3969-.8885c.3969,0,.5954,0,.8931,0c.397,0,.6947-.2961.6947-.691c0-.3948-.2977-.5923-.5954-.5923-.9924-.0987-1.9848-.1974-2.9772-.1974-.4962,0-.7939.2962-.7939.691s.2977.5923.6947.691c.6946-.0987,1.4885,0,2.084.0987Z" fill="#41332b"/><path d="M32.537,72.7938c0,1.1846-1.1909,1.9743-2.2825,1.382-.8932-.4936-1.6871-1.0859-2.5802-1.6782-.2977-.1974-.4962-.3948-.5955-.691-.2977-.5923-.0992-1.382.397-1.7768s1.1909-.4936,1.7863-.1975c.8932.5923,1.7863,1.1846,2.5802,1.7769.4962.2962.6947.691.6947,1.1846Zm-.8932-.0987c0-.0987-.0992-.2962-.1984-.3949-.8932-.5923-1.7863-1.1846-2.6795-1.7769-.2977-.1974-.5954-.0987-.7939.1975s-.1985.691.0992.8884c.8932.5923,1.7863,1.1846,2.6795,1.7769.3969.2961.9924-.0987.8931-.691Z" fill="#41332b"/><path d="M11.5977,42.1925c0-.4935,0-.8884,0-1.2832.0992-.7898.6946-1.2833,1.4885-1.2833s1.4886.4935,1.5879,1.382c.0992.9871.1984,1.9743.1984,3.0601c0,.9872-.4962,1.5795-1.3893,1.6782s-1.5878-.3949-1.6871-1.382c0-.8885-.0992-1.5795-.1984-2.1718Zm2.3817,1.1846c0-.691-.1985-1.4807-.1985-2.2704c0-.2962-.1985-.5923-.4962-.5923-.3969,0-.6947.1974-.7939.5923-.1985,1.0859.0992,2.1717.2977,3.2576.0993.2961.2977.4935.6947.4935s.4962-.2961.5954-.691c-.0992-.2961-.0992-.4935-.0992-.7897Z" fill="#41332b"/><path d="M34.72,73.1885c1.0916.4935,2.481.691,3.5726,1.5794.5954.3949.5954,1.1846.2977,1.7769s-.9924.9871-1.5878.7897c-1.1909-.2962-2.2825-.7897-3.3741-1.382-.5955-.2962-.794-1.0859-.5955-1.7769.2977-.5923.7939-.9871,1.6871-.9871Zm2.2825,3.1588c.4962.0987.8931-.0987.9924-.4935.0992-.3949-.0993-.691-.4962-.7897-.7939-.2962-1.6871-.691-2.481-.9872-.4962-.1974-.7939-.0987-.9924.2961s0,.691.4962.9872c.6947.2961,1.3894.5923,1.9848.7897.1985.0987.3969.1974.4962.1974Z" fill="#41332b"/><path d="M43.751,79.1115c-.9924-.0987-2.1832-.2962-3.2749-.691-.7939-.2962-1.0916-.9872-.9924-1.7769.1985-.691.8932-1.2833,1.5879-1.1846c1.1908.1975,2.2825.4936,3.4733.7898.6947.1974.9924.9871.7939,1.7768c0,.691-.5954,1.0859-1.5878,1.0859Zm-2.4809-2.8627c-.2978,0-.5955.0987-.6947.3948-.0993.2962,0,.5923.2977.7897.0992.0987.1985.0988.397.0988.7939.1974,1.687.3948,2.4809.5922.4962.0988.8932-.1974.9924-.5922s-.2977-.5923-.5954-.6911c-.9924-.0987-1.9848-.2961-2.8779-.5922Z" fill="#41332b"/><path d="M56.2549,80.0002c-.4962,0-.8932,0-1.3894,0-.8931-.0987-1.4885-.691-1.4885-1.4807s.5954-1.4808,1.4885-1.5795c.9924-.0987,2.0841-.0987,3.0764-.0987.8932,0,1.4886.5923,1.4886,1.382.0993.8884-.4962,1.5794-1.3893,1.6782-.5955.0987-1.1909.0987-1.7863.0987Zm.0992-.8885c.4962,0,.9924,0,1.3894,0c.4962,0,.7939-.2961.7939-.691c0-.2961-.2977-.5922-.7939-.691-.9924-.0987-1.9848,0-2.9772.1975-.2977.0987-.5954.2961-.5954.5923c0,.3948.2977.4935.6946.4935.5955.0987.9924.0987,1.4886.0987Z" fill="#41332b"/><path d="M245.901,31.1362c0,.8884-.496,1.4807-1.191,1.5794-.694.0987-1.389-.2961-1.488-1.0858-.199-.7897-.298-1.5795-.397-2.4679-.1-.691.397-1.2833,1.091-1.4807.695-.1974,1.29.1974,1.588.8884.099.8885.199,1.7769.397,2.5666Zm-.992-.1974c-.1-.5923-.199-1.2833-.397-1.9743-.1-.1974-.298-.3949-.496-.2962-.298,0-.397.1975-.397.3949.099.8884.198,1.6781.397,2.4679.099.1974.297.2961.595.2961.198,0,.298-.1974.397-.3949-.099-.0987-.099-.2961-.099-.4935Z" fill="#41332b"/><path d="M241.237,22.9431c1.29-.4936,1.786-.2962,2.381.9871.298.5923.596,1.1846.794,1.8756.199.7897-.099,1.4807-.794,1.7768-.694.2962-1.389,0-1.786-.691-.298-.691-.595-1.2833-.992-1.9743-.199-.8884,0-1.4807.397-1.9742c0,0,0-.0988,0,0Zm2.381,2.9614c-.198-.691-.595-1.4807-1.091-2.2704-.1-.1975-.397-.1975-.596,0-.298.1974-.298.3948-.099.691.298.691.595,1.2833.893,1.9743.099.2961.298.3948.596.2961.198,0,.297-.1974.297-.691Z" fill="#41332b"/><path d="M245.206,39.922c-.198.9872-.397,1.9743-.992,2.8627-.397.5923-1.191.7898-1.787.4936-.595-.2961-.893-.8884-.694-1.5794.198-.7897.496-1.5794.794-2.3692.297-.691.893-.9871,1.587-.7897.695.0987,1.092.691,1.092,1.382Zm-.893.1975c0-.2962-.099-.5923-.397-.691-.397-.0988-.496.0987-.596.3948-.198.691-.496,1.2833-.694,1.9743-.099.2961-.099.5923.198.691.397.1974.596,0,.794-.3949.298-.5922.496-1.2832.695-1.9742Z" fill="#41332b"/><path d="M237.962,18.3037c.099.2962.297.0987.496.0987.695-.1974,1.191,0,1.588.4936.496.4936.893,1.0859,1.389,1.5794.596.7897.596,1.2833-.099,2.073-.099.0987-.397.1975-.099.3949-.1-.2962-.298-.1974-.497-.0987-.595.1974-1.091-.0987-1.488-.5923s-.794-.8884-1.191-1.382c-.695-.8884-.695-1.2833-.099-2.1717.099-.1975.297-.2962,0-.3949Zm.992.8884c-.397,0-.595.3949-.397.7898.496.5922.993,1.1845,1.489,1.7768.198.1974.496.2962.794.0987.297-.1974.198-.5923,0-.7897-.397-.5923-.893-1.0858-1.39-1.5794-.198-.1974-.297-.2962-.496-.2962Z" fill="#41332b"/><path d="M246,34.7887c-.099.691-.099,1.382-.198,2.073-.1.8884-.794,1.382-1.588,1.2833s-1.29-.7897-1.191-1.6781c.099-.691.099-1.382.198-2.073.1-1.0859,1.092-1.5795,2.084-1.1846.596.3948.695.9871.695,1.5794Zm-2.084,1.1846c0,.2961,0,.5923,0,.8884c0,.2962.099.4936.397.4936s.496-.1974.496-.3949c.199-.7897.199-1.5794.199-2.3691c0-.2962-.199-.4936-.497-.4936-.297,0-.496.1974-.496.3949c0,.4935,0,.9871-.099,1.4807Z" fill="#41332b"/><path d="M237.961,18.3035c-.198,0-.297.1974-.396.2961-.596.3949-1.191.3949-1.787,0-.595-.3948-1.191-.8884-1.786-1.2832-.695-.5923-.893-1.382-.397-1.9743.397-.5923,1.29-.691,2.084-.1975.595.3949,1.191.8885,1.786,1.2833.695.4936.596,1.1846.496,1.8756Zm-.793-.691c0-.1974-.1-.2961-.199-.3949-.595-.5922-1.191-.9871-1.885-1.4807-.298-.1974-.497-.0987-.695.0987-.199.1975-.099.4936.099.691.596.4936,1.29.9872,1.886,1.4808.397.1974.794-.0988.794-.3949Z" fill="#41332b"/><path d="M168.197,54.4328c.298-.1974.298-.4935.397-.7897.992-2.764,1.985-5.4293,3.275-8.0946.397-.7897.893-1.5794,1.488-2.3691.695-.7897,1.489-1.1846,2.58-.9872c2.581.4936,3.97,2.073,3.871,4.7383c0,1.382-.199,2.6653-.298,4.0473-.298,3.6525-.595,7.4036-.298,11.056c0,.691.1,1.382.397,1.9743.199.3949,0,.5923-.297.691-1.687.691-3.573.2962-4.466-1.5794-.596-1.2833-.596-2.5666-.496-3.9486.297-3.6524.595-7.3049.794-10.9573.099-1.1846.099-2.2704,0-3.455-.298-.0987-.397.1974-.497.2962-.297.4935-.694.9871-.893,1.5794-1.885,4.0473-3.374,8.1933-4.366,12.5367-.1.5923-.199,1.0859-.298,1.6782c0,.2961-.099.4935-.496.5922-1.092.3949-2.183.3949-3.176-.0987-.794-.3948-1.29-1.0858-1.488-1.8755-.199-.5923-.298-1.1846-.298-1.7769-.397,0-.298.2961-.397.4936-.298.5923-.496,1.1845-.794,1.8755-.199.4936-.595.9872-.893,1.4808-.794.8884-1.687,1.5794-2.977,1.382-1.39-.1975-2.382-.9872-2.779-2.2705-.397-1.1845-.496-2.3691-.298-3.6524-.397.0987-.397.3949-.496.5923-.595,1.0858-1.29,2.1717-2.183,3.0601-1.687,1.6782-3.374.9872-4.466-.1974-.397-.3949-.595-.9871-.893-1.4807-.298.0987-.298.3948-.397.5923-.298.691-.695,1.382-1.191,2.073-1.687,2.1717-5.26,2.073-6.55-.691-.397-.8885-.694-1.7769-.694-2.764c0-.3949,0-.7897-.199-1.2833-.298.5923-.595,1.1846-.893,1.7768-.595,1.1846-1.29,2.2705-2.283,3.1589-1.389,1.2833-2.679,1.2833-3.969-.1974-.992-1.1846-1.489-2.5666-1.786-4.0473-.596-3.455-.397-6.8113.595-10.1676.397-1.382.992-2.6653,2.084-3.6524c1.886-1.7769,4.466-1.7769,6.252.0987.199.1974.298.3948.496.4936.298-.0988.199-.2962.199-.3949.298-4.146.595-8.1933.992-12.2406c0-.1974,0-.3948.099-.5923.1-.8884.298-1.0858,1.191-.9871.794,0,1.588.0987,2.382.4935.893.4936,1.29.9872,1.092,1.9743-.893,5.1332-1.191,10.2663-1.489,15.3995-.198,2.764-.198,5.4293-.099,8.1933c0,.9871.099,1.8756.397,2.8627.198.691.595.7897,1.091.2961.397-.3948.596-.7897.794-1.2832.794-1.8756,1.191-3.7512,1.39-5.7255.099-1.2833.297-2.5666.794-3.7511.297-.7897.694-1.4807,1.19-2.1717c1.985-2.5666,5.558-2.3692,7.245-.4936.099.0987.198.2961.397.2961.198-.3948.099-.8884.198-1.2833.199-.691.298-.7897.993-.8884.893-.0987,1.786,0,2.679.2962s1.191.8884.893,1.7768c-.893,3.1589-1.29,6.4165-1.587,9.674-.1.9872-.1,1.9743,0,2.9615c0,.2961.099.4935.099.7897.198.4935.397.5923.794.1974.397-.4936.694-1.0859.893-1.6781.794-1.8756,1.29-3.8499,1.786-5.8242.099-.2961.099-.7897.298-.8884.893-.2962.595-1.0859.695-1.6782.198-1.1845.297-2.3691.396-3.6524c0-.3949.199-.691.596-.691c1.092,0,2.084,0,3.176.3949.893.2961,1.091.691.893,1.5794-.298,1.9743-.496,3.8498-.695,5.8241-.496.5923-.595.9872-.496,1.2833c0,.0987-.099.0987-.099.0987s0,0,0,.0988c0-.0988.099-.1975.099-.1975Zm-34.138,4.9357c.397-.2961.595-.691.694-1.0858.993-2.2704,1.886-4.5409,2.481-6.91.397-1.5795.298-3.0602-.099-4.6396-.099-.3949-.298-.8884-.595-1.1846-.397-.4935-.596-.4935-.993,0-.397.5923-.694,1.2833-.893,1.9743-.595,1.7769-.992,3.6524-1.191,5.6267-.198,1.6782-.397,3.3563-.099,5.0345.298.3948.298.8884.695,1.1845Zm16.87-3.3562c0,.5922,0,1.2832.199,1.8755.099.2962.099.691.496.7897.298,0,.397-.2961.595-.5922.1-.0988.1-.1975.199-.2962.992-1.7768,1.786-3.6524,2.481-5.6267.397-1.0859.298-2.1717.099-3.2576-.099-.4936-.298-.9871-.496-1.382-.496-.7897-.893-.7897-1.39-.0987-.297.3949-.496.7897-.694,1.2833-.993,2.3691-1.39,4.837-1.489,7.3049Z" fill="#fbcb0d"/><path d="M190.823,57.0981c-.298.5923-.595,1.1846-.893,1.7769-.595,1.1846-1.29,2.2704-2.283,3.1588-1.389,1.2833-2.679,1.2833-3.969-.1974-.993-1.1846-1.489-2.5666-1.786-4.0473-.596-3.455-.397-6.8113.595-10.0688.397-1.2833.992-2.4679,1.886-3.4551c1.885-1.9742,4.565-1.9742,6.45,0c.099.1975.199.3949.496.4936.199,0,.199-.1974.199-.3948.297-3.455.496-7.0088.794-10.4638.099-.8884.198-1.7768.297-2.6653c0-.4935.298-.691.794-.691.893,0,1.787.0988,2.581.4936.992.4936,1.29,1.0859,1.091,2.073-.298,1.5794-.496,3.0602-.595,4.6396-.199,1.7769-.397,3.5537-.496,5.3306-.298,4.4421-.596,8.8843-.397,13.3264c0,.9872.099,2.073.397,3.0602.198.7897.595.8884,1.19.2961.397-.3948.596-.7897.794-1.2833.794-1.8755,1.191-3.8498,1.489-5.8241.198-.8885.298-1.6782.397-2.764.595.9871.893,1.8755.893,2.764c0,2.4678-.397,4.837-1.191,7.1074-.298.8884-.794,1.6782-1.389,2.3692-1.787,1.9742-4.764,1.6781-6.153-.4936-.595-.8884-.794-1.9743-.893-2.9614-.099-.691-.099-1.0859-.298-1.5795Zm-4.069,2.2705c.397-.3949.596-.7898.794-1.2833.993-2.1717,1.787-4.3435,2.382-6.6139.397-1.5794.397-3.1589-.099-4.7383-.1-.3948-.298-.8884-.596-1.1846-.397-.4935-.595-.4935-.992,0-.397.5923-.695,1.382-.893,2.073-.596,1.7769-.893,3.5538-1.092,5.4293-.198,1.6782-.397,3.455-.099,5.1332.198.3948.198.7897.595,1.1846Z" fill="#fbcb0d"/><path d="M115.6,54.433c.099-.3949.199-.691.298-.9872.992-2.8627,1.985-5.6267,3.473-8.292.397-.691.794-1.382,1.39-2.073.595-.7897,1.389-.9871,2.381-.8884c2.581.4936,3.97,2.073,3.97,4.6396c0,1.382-.199,2.764-.298,4.0473-.298,3.7511-.595,7.4036-.298,11.1547c0,.3949.1.7897.199,1.0859c0,.3948.198.691.397,1.0858-1.29,1.0859-3.771.8885-4.764-.9871-.496-.9872-.694-2.073-.694-3.1589.099-2.2704.297-4.4421.397-6.7126.198-2.5665.496-5.0344.496-7.601c0-.3948,0-.7897,0-1.0858-.397-.0988-.496.0987-.596.2961-.297.4936-.694.9872-.893,1.5794-1.885,4.0473-3.374,8.1933-4.366,12.5368-.099.5923-.199,1.0858-.298,1.6781c0,.2962-.099.4936-.496.5923-1.092.3949-2.183.3949-3.176-.0987-1.29-.5923-1.588-1.7769-1.786-2.9614-.199-1.5795-.199-3.1589-.099-4.6396.099-2.4679.297-4.9357.694-7.3049.1-.691.1-.7897.794-.7897.993,0,1.886,0,2.878.2961.893.2962,1.092.691.993,1.6782-.199,1.9743-.397,3.8498-.695,5.8241c0,.3949-.099.691.099,1.0859Z" fill="#fbcb0d"/><path d="M51.2932,34.9864c1.687-2.073,2.2825-4.4421,2.9771-6.8113.4962-1.8755.7939-3.7511.8932-5.6267.0992-.7897,0-1.5794-.1985-2.3691-.0992-.4936-.2977-.9872-.7939-1.1846-.5955-.1974-1.0916.0987-1.4886.4936-.5954.4935-.9924,1.0858-1.2901,1.7768-1.1909,2.073-1.9848,4.3435-2.6795,6.6139-1.3893,4.4421-2.2825,8.983-3.0764,13.5239-.8931,5.1331-1.687,10.2663-2.6794,15.3994-.2977,1.4807-.5955,2.9615-1.0916,4.3435-.2978.691-.5955,1.382-.9924,1.9742-.4962.5923-.9924.8885-1.7863.9872-2.481.1974-4.2673-.7897-5.4582-2.9614-.8931-1.7769-1.2901-3.6525-1.5878-5.6268-.4962-3.9485-.7939-7.9958-1.1909-11.9444-.4962-5.0344-.8931-10.0689-1.687-15.1033-.1985-.9872-.397-2.073-.7939-3.0602-.4962-1.0858-1.1909-1.2833-1.9848-.3948-.5955.5923-.8932,1.382-1.1909,2.1717-1.3893,3.7511-1.5878,7.601-.4962,11.4509.1985.5923.397,1.1845.6947,1.7768.6947,1.2833,1.5878,2.2705,3.3741,2.4679-.8931.5923-1.6871.7897-2.5802.5923-1.2901-.2962-2.1833-.9872-2.8779-1.9743-.8932-1.1846-1.2901-2.5666-1.4886-3.9486-.4962-3.7511,0-7.4036,1.2901-10.9573.2977-.8884.7939-1.7769,1.4886-2.4679c1.1908-1.2832,2.5802-1.6781,4.2672-1.382c3.2749.5923,4.962,2.2705,5.5574,5.6268.1985,1.0858.2977,2.1717.2977,3.3563.0993,4.7383.5955,9.4765,1.1909,14.2148.4962,3.9486.9924,7.9959,1.7863,11.9445.1985.9871.397,2.073.7939,3.0601.0993.3949.2977.7897.6947,1.0859.397-.3949.397-.9872.4962-1.4807.4962-3.2576.8931-6.5152,1.3893-9.7728c1.0917-7.601,2.3818-15.202,4.7635-22.5068.6947-2.1718,1.5878-4.3435,2.6795-6.3178.5954-1.0858,1.2901-2.073,2.1832-2.9614c1.9848-1.8756,4.4658-1.8756,6.649-.8884.9924.3948,1.4886,1.1845,2.0841,2.073.9923,1.6781,1.3893,3.455,1.5878,5.2318.1985,2.3692-.1985,4.6396-1.0917,6.8113-.1984.3949-.3969.7897-.5954,1.0859-1.1909,1.9743-2.8779,2.8627-5.1604,2.5666-1.1909-.2962-2.084-.4936-2.8779-.8885Z" fill="#fbcb0d"/><path d="M80.9655,60.0597c1.1909.7897,2.481.5923,3.6719.0987.8931-.3948,1.5878-.8884,2.2824-1.5794c1.2902-1.1846,2.2825-2.4678,3.1757-3.8498-.0992-.1975-.2977-.0988-.397-.0988-1.5878.0988-2.7787-.5922-3.3741-1.9742-1.1909-2.4679-.9924-4.9358.397-7.2062c1.3893-2.2704,3.4733-3.455,6.1528-3.5537.9924-.0987,2.084,0,3.0764.1974.7939.0987.7939.0987,1.0916-.5923c1.1909-2.6653,2.2825-5.4293,3.2748-8.1933.893-2.4678,1.786-4.9357,2.283-7.5023.099-.4935.397-.7897.893-.7897.893,0,1.091-.4936,1.191-1.1846.297-1.6781.694-3.3563,1.19-5.0344.199-.691.199-.691.894-.4936.992.2962,1.984.5923,2.977,1.1846.694.4936,1.091,1.0859.992,1.8756-.198,1.6781-.595,3.3563-.893,5.0344-.893,4.3434-1.687,8.5882-2.183,13.0303-.199,2.1717-.298,4.4422-.496,6.7126-.298,4.9357-.397,9.7727-.397,14.7085c0,1.6781,0,3.455.397,5.1331.099.3949-.1.4936-.298.691-1.092.9871-2.779.7897-3.573-.3949-.496-.7897-.595-1.5794-.694-2.4678-.298-3.9486-.199-7.7985-.199-11.747c0-1.4808,0-2.8628.099-4.3435c0-.4935-.099-.691-.595-.7897-.992-.2961-1.886-.8884-2.7788-1.1846-1.3893-.4935-1.0916-.4935-1.5878.5923-2.084,4.4422-4.168,8.7856-6.649,13.0303-.7939,1.382-1.6871,2.6653-2.6794,3.9486-1.3894,1.9743-3.7711,1.6782-5.2597,1.0859-1.7863-.5923-2.5802-2.9615-1.9848-4.3435ZM103.096,32.8146c-1.39,3.2575-2.779,6.5151-4.1682,9.8714c1.1912.3949,2.2822.7897,3.4732,1.1846.199-3.7512.397-7.4036.695-11.056ZM91.7826,51.9652c1.2901-2.3692,2.4809-4.6396,3.5726-7.1075-1.1909-.1974-2.0841-.1974-2.9772.1974-.5954.1975-1.0916.5923-1.4886,1.1846-.7939,1.4807-.8931,4.146.8932,5.7255Z" fill="#fbcb0d"/><path d="M72.0342,57.0983c-.397.4936-.5955.7897-.8932,1.0859-.7939.9871-1.7863,1.7769-2.9771,2.1717-1.4886.4936-2.878.2962-4.0688-.691-1.0917-.8884-1.7863-1.9743-2.1833-3.1589-.0992-.2961-.1985-.5922-.2977-.9871-.2977.1974-.2977.5923-.4962.8884-.5954,1.4808-1.2901,2.8628-2.481,3.8499-1.0916.9871-2.3817,1.5794-3.8703,1.382-1.5878-.1974-2.6795-1.0859-3.3741-2.4679-.5955-1.1845-.8932-2.4678-1.0917-3.7511-.4962-2.9614-.3969-5.9229.2978-8.7856.1984-.7897.4962-1.5794.8931-2.2704.5954-.9872,1.3894-1.6782,2.5802-1.9743.5955-.0987,1.1909-.1974,1.7863-.1974c1.4886.0987,2.481.7897,2.9772,2.1717.4962,1.4807.397,2.8627.0992,4.3434-.1984.9872-.4962,1.8756-.9924,2.6653-.7939,1.1846-1.8855,1.9743-3.4733,1.4807-.0993,1.7769,0,3.455.4962,5.0345.0992.1974.1985.3948.2977.5922.397.5923.7939.691,1.4886.3949.3969-.2961.7939-.5923,1.1908-.9871c2.1833-2.2705,3.2749-5.0345,3.5726-8.1933c0-.2962,0-.5923,0-.8885.1985,0,.1985.2962.397.1975.2977-1.0859.6947-2.0731,1.1909-3.0602.4962-.8884,1.0916-1.6781,1.8855-2.3691c2.1833-1.8756,5.5574-1.382,6.8475,1.4807.0992.0987.0992.1974.1985.3948.1985-.1974.0992-.3948.0992-.5923c0-.4935,0-1.0858.0993-1.5794.0992-1.0858.3969-1.2833,1.3893-1.1846.7939.0988,1.5878.2962,2.2825.691.7939.3949,1.1909.9872,1.0916,1.8756-.1985,1.1846-.2977,2.3692-.4962,3.455-.2977,2.2705-.2977,4.6396-.3969,7.1075.5954-.1975.8931-.5923,1.1908-.8885.8932-.7897,1.6871-1.6781,2.1833-2.764.0992-.1974.0992-.5923.4962-.5923s.7939.3949.8931.7898c.0993.4935-.0992.9871-.2977,1.382-.3969.7897-.8931,1.4807-1.4885,2.073-.794.8884-1.5879,1.8755-2.481,2.6653-.397.4935-.5955.8884-.5955,1.5794c0,2.4678-.2977,4.9357-.9924,7.4036-.3969,1.382-.8931,2.764-1.7863,3.8498-1.2901,1.6782-3.0764,2.3692-5.1604,1.8756s-3.2749-2.3691-2.8779-4.4421c.1985-1.0859.6947-1.9743,1.2901-2.8628c1.0916-1.4807,2.3817-2.8627,3.6718-4.146.397-.3948.794-.7897,1.0917-1.1845.7939-1.1846.7939-1.1846.7939-2.8628Zm-6.3513-4.146c0,1.1846.0992,2.2705.3969,3.455.0993.3949.1985.7898.4962,1.0859.2978.3949.5955.3949.9924.0987.397-.3949.5955-.7897.7939-1.2833.9924-2.073,1.7863-4.2447,2.2825-6.4164.397-1.6782-.0992-3.1589-1.1908-4.4422-.1985-.1974-.397-.3948-.6947-.5923-.4962-.2961-.8932-.2961-1.2901.1975-.397.4936-.6947,1.1846-.8932,1.7768-.5954,1.9743-.7939,3.9486-.8931,6.1203ZM54.1712,49.2999c0,.3949,0,.5923,0,.8884c0,.8885.4962,1.0859,1.1908.691.2978-.1974.4962-.3948.7939-.691.8932-1.2833,1.1909-2.764,1.0917-4.3434c0-.1974-.0993-.3949-.1985-.5923-.2977-.691-.8932-.8884-1.4886-.3949-.4962.3949-.7939.9872-.8931,1.5795-.2978.9871-.397,1.9743-.4962,2.8627Zm17.466,13.3264c-1.4886,1.4808-2.7787,2.9615-3.5726,4.837-.2977.5923-.4962,1.1846-.3969,1.8756.0992.5923.4962.8885,1.0916.7897.6947-.1974,1.1909-.691,1.4886-1.2832.8931-1.9743,1.1908-4.1461,1.3893-6.2191Z" fill="#fbcb0d"/><path d="M235.084,41.8964c-.1.7897-.596,1.4807-.993,2.1717-1.091,1.7769-2.481,3.1589-4.168,4.2447-.695.4936-.695.3949-1.091-.2961-.199-.3949-.497-.7897-.695-1.2833-.099-.1974-.199-.5923-.496-.3948-.298.1974,0,.3948.099.5922.397.5923.695,1.2833,1.092,1.8756-1.39.9872-1.39.9872-2.184-.4936-.198-.3948-.397-.691-.595-1.0858-.099-.0987-.199-.2962-.397-.1974-.199.0987-.199.2961-.099.3948.297.5923.595,1.1846.893,1.7769.298.4935.198.5923-.298.691-1.985.5923-4.069.7897-6.054.4935-.893-.1974-1.587,0-2.282.7898-1.489,1.5794-2.977,3.0601-4.466,4.6395-.297,0-.397-.2961-.595-.4935-.298-.1975-.596-.3949-.993-.3949-.198,0-.397,0-.496.1974c0,.2962.199.2962.397.2962.199,0,.397.0987.596.1974.496.3949.496.9872-.1,1.2833-.198.0987-.397,0-.496-.0987-.496-.2962-.893-.5923-1.389-.8884-.099-.0988-.298-.1975-.397,0-.199.1974,0,.2961.198.4935.298.1975.497.3949.794.5923.298.1974.596.2962.794.691-1.488,1.5794-2.977,3.0602-4.466,4.6396-.397-.1974-.198-.4936-.198-.7897.099-5.1332.099-10.1676.198-15.3008c0-.691-.198-1.1845-.793-1.6781-2.382-2.073-3.573-4.7383-4.069-7.7984-.893-6.4165,2.878-11.6483,7.74-14.4124c6.947-3.8498,15.68-2.6652,21.337,2.7641c2.58,2.4678,4.069,5.528,4.565,9.0817.198,1.5794.198,3.1588,0,4.7383-.1.7897-.1.7897-.893.7897-.596,0-1.092.0987-1.588.4936-.099.0987-.199.2961-.099.3948.099.0987.198.0987.297,0c.397-.2961.893-.3948,1.39-.3948.198,0,.496.0987.496.3948c0,.3949-.298.7897-.596.7897-.595,0-1.091.0987-1.587.1975-.298.0987-.596.2961-.894.5922-.099.0988-.099.1975-.099.2962.099.0987.199.0987.298,0c.298-.1974.595-.3949.893-.4936.595-.0987.992-.2961,1.489-.0987ZM219.106,27.0892c-4.069-.1974-7.939,3.3563-8.137,7.5023-.199,4.5409,3.175,8.1933,7.74,8.3908c5.061.1974,8.038-3.7512,8.336-7.5023.298-4.6396-3.969-8.4895-7.939-8.3908Zm13,6.7126c0,0-.099.0987-.198.1975c0,.0987,0,.1974.099.1974.397.0987.596.2961.695.691c0,.0987.198.0987.198.0987.1-.0987.1-.0987.1-.1974.198-.3949-.298-.9872-.894-.9872ZM211.564,46.4373c-.099-.1975-.099-.4936-.199-.7897c0-.0988-.099-.1975-.297-.1975-.199,0-.199.1975-.199.2962c0,.2961.1.5923.199.7897c0,.1974.198.2961.297.1974.199,0,.199-.0987.199-.2961Zm-5.855-13.8201c.099,0,.198,0,.298-.0987.198-.0987.397-.0987.297-.3948-.099-.1975-.198-.1975-.397-.1975-.099,0-.198,0-.397.0988-.198,0-.397.0987-.297.3948.099.1974.297.1974.496.1974Zm27.787.3949c0-.0987,0-.0987,0-.1974-.199-.1975-.397-.4936-.695-.4936l-.099.0987c0,.3949.298.4936.595.691c0,.0987.199,0,.199-.0987Zm-6.153,11.9445c0-.0988-.099-.2962-.199-.2962-.297.0987-.396.2962-.396.5923c0,.0987.099.2961.198.1974.298,0,.298-.1974.397-.4935ZM206.404,30.643c.198,0,.396-.0988.496-.2962c0-.0987,0-.1974-.199-.2961-.198,0-.397.0987-.496.2961s0,.2962.199.2962Z" transform="matrix(1.00489 0.069927 0.069927 1-3.95359-15.325473)" fill="#fccd0e"/><path d="M7.5286,26.497c.59543-.8885,1.2901-1.4807,2.18325-1.7769.79395-.2961,1.58785-.2961,2.28255-.0987.4961.1974.8931.4936.9923,1.1846-1.0916-.1974-1.9847.3948-2.9771.5923s-1.68709.7897-1.88557,1.8755c-.09924.3949-.29772.5923-.59543.5923s-.39696-.2961-.39696-.4935c-.39696-1.0859-1.29011-1.4808-2.2825-1.0859-1.19086.4936-2.28249,1.0859-3.0764,2.2704-.09924.1975-.19848.2962-.4962.2962s-.396954-.1975-.396954-.4936c-.099239-.691.198474-1.2833.595434-1.7769.69467-.8884,1.68706-1.382,2.87793-1.382.19848,0,.39696,0,.79391,0-1.19087-1.1845-2.58021-1.4807-3.96956-1.7768.39696-.8885,1.38935-1.2833,2.2825-1.0859.79391.1974,1.48858.4936,1.98478,1.0859.29772.2961.49619.5923.99239.8884.09924-.5923.09924-1.0859.19848-1.4807.29771-1.0859.99239-1.8756,2.18325-2.1717.29772-.0987.59544-.0987.89315,0c.39695.0987.49625.3948.19848.5923-.69467.691-1.09163,1.6781-1.88554,2.2704-.49619.2961-.59543.8884-.49619,1.9743Zm.09924-2.764c-.09924,0-.19848.0987-.29772.1974c0,.0987,0,.1974.19848.1974.09924,0,.19848-.0987.29771-.1974c0-.0987-.09924-.1974-.19847-.1974Z" transform="translate(.000004 0)" fill="#5f9032"/><path d="M8.62061,29.557c.99239-.0987,1.2901.0988,1.38939.7898c0,.0987-.09929.2961.0992.2961.5954,0,.6947.3949.7939.8884c0,.1975.0992.2962.2977.3949.4962.1974.7939.4936.5955,1.0858-.0993.1975.1984.1975.2977.1975.4962.1974.5954.4935.3969.8884-.0992.0987-.0992.1974-.1985.2961-.0992.2962-.1984.5923-.5954.4936-.2977-.0987-.3969-.2961-.4962-.5923-.2977-1.2833-1.0916-2.3691-1.68704-3.455-.29772-.4935-.59544-.8884-.89315-1.2833Z" transform="translate(.000002 0.000001)" fill="#5f9032"/><path d="M4.74971,28.5698c.39696,0,.69468-.4936,1.19087-.2961c0,.2961-.19848.3948-.29772.4935-.29771.1975-.59543.4936-.49619.8885c0,.0987,0,.1974-.09924.2961-.59543.2962-.49619.7897-.49619,1.2833c0,.2961-.09924.2961-.39696.2961-.19848,0-.19848.2962-.39696.2962c0-.4936,0-1.0859,0-1.5794.39696-.1975.39696-.5923.39696-.9872.19848-.0987.39696-.2961.39696-.5923.09924.0987.19847,0,.19847-.0987Z" transform="translate(0 0.000001)" fill="#5f9032"/><path d="M3.85666,30.3467c-.29772.4936,0,1.0859-.19848,1.5795-.59543-1.1846-.19848-2.9615.79391-3.5538.29772-.1974.39696,0,.39696.2962-.09924.0987-.09924.0987-.19848.1974-.19848.0987-.39696.2962-.39696.5923-.39695.0987-.39695.4936-.39695.8884Z" transform="translate(.000002 0)" fill="#5f9032"/><path d="M5.2463,27.8789c.09924,0,.19848,0,.19848.0987s-.09924.1974-.19848.1974-.09924.0001-.09924-.0987c-.09924-.1974,0-.1974.09924-.1974Z" transform="translate(.000003 0)" fill="#5f9032"/><path id="ekf9M8SaQIs38" d="M229.228,5.66802c.298-.19742.397-.49357.497-.78971.397-.88843.793-1.67815,1.29-2.46786.297-.39486.595-.78972.992-1.08586c1.092-.789715,2.382-.493573,3.076.59229.497.78971.596,1.77686.397,2.66529-.595,3.455-2.183,6.51513-4.366,9.27913c0,0,0,0-.099.0987-.993,1.0859-1.39,1.1846-2.382.1975-2.68-2.4679-4.863-5.2319-5.954-8.88433-.199-.59229-.199-1.18458-.1-1.77686.199-1.382,1.687-2.764007,3.474-1.57943.893.59228,1.488,1.382,2.183,2.27043.397.49357.595.98714.992,1.48071Zm4.168,1.57944c0-.29615-.099-.49358-.297-.59229-.199-.09872-.397,0-.497.09871-.099.19743-.297.39486-.396.59229-.596.98714-1.191,1.97429-1.787,2.96143-.099.1974-.198.2961-.297.4936-.1.1974-.1.3948.099.5923.198.1974.397.1974.595,0c.199-.0988.298-.2962.397-.3949.695-1.08586,1.389-2.17171,1.985-3.35629.099-.09871.099-.19743.198-.39485Z" transform="matrix(.8 0 0 0.8 45.809028 1.571851)" fill="#df4949"/><path d="M15.5674,54.8276c0-.3949,0-.691.3969-.7897s.5955.0987.794.3948c.3969.8885.7939,1.8756,1.1908,2.764.0993.2962-.0992.5923-.2977.691-.397.1975-.6947.0988-.8931-.2961-.2978-.691-.6947-1.4807-.9924-2.1717-.0993-.0987-.1985-.2962-.1985-.5923Z" fill="#5f9032"/><path d="M13.4829,48.1152c0-.3948.1985-.691.5954-.7897s.5955.1974.6947.4936c.2977.9871.4962,1.8756.7939,2.8627.0993.3949-.0992.691-.4962.7897-.2977.0987-.5954,0-.7939-.3948-.3969-.8885-.5954-1.8756-.7939-2.9615Z" fill="#5f9032"/><path d="M62.6065,78.7166c-.2977,0-.4962,0-.7939,0s-.4962-.1974-.4962-.4935c0-.2962,0-.4936.2977-.691.0993-.0987.2977-.1975.397-.1975.8931-.0987,1.7863-.1974,2.6794-.1974.5955,0,.7939.1974.7939.5923c0,.4936-.2977.691-.6946.691-.7939.0987-1.4886.3949-2.1833.2961Z" fill="#5f9032"/><path d="M26.0866,68.5493c0,.2961-.0992.4936-.2977.5923-.2977.1974-.5955.0987-.7939,0-.6947-.4936-1.1909-1.0859-1.6871-1.6782-.1985-.1974-.397-.3948-.4962-.691-.1985-.2961,0-.5923.1985-.7897s.4962-.2961.6947-.0987c.7939.7897,1.5878,1.5794,2.3817,2.3691c0,.1975,0,.2962,0,.2962Z" fill="#5f9032"/><path d="M21.5211,63.4162c0,.2961-.1984.4936-.3969.5923s-.397.0987-.5955-.0987c-.0992-.0988-.1984-.1975-.2977-.2962-.4962-.7897-1.0916-1.5794-1.5878-2.3691-.1985-.2962-.1985-.5923.0992-.7898.2978-.2961.6947-.2961.8932.0988.5954.8884,1.1909,1.7768,1.7863,2.6653c0,.0987,0,.1974.0992.1974Z" fill="#5f9032"/><path d="M50.1024,79.1117c-.5954-.0988-1.2901-.0988-2.084-.1975-.397,0-.6947-.2961-.6947-.691c0-.2961.2977-.691.7939-.691.9924,0,1.9848.0987,2.9772.1975.2977,0,.5954.2961.5954.5922c0,.3949-.2977.5923-.6946.691-.2977.0988-.4962.0988-.8932.0988Z" fill="#5f9032"/><path d="M31.6438,72.6953c0,.5923-.4962.9872-.9924.691-.8932-.4935-1.7863-1.0858-2.6795-1.7768-.2977-.1975-.2977-.5923-.0992-.8885s.4962-.3948.7939-.1974c.8932.5923,1.7863,1.1846,2.6795,1.7769.2977.0987.2977.2961.2977.3948Z" fill="#5f9032"/><path d="M13.9795,43.377c0,.2961,0,.4935,0,.691c0,.3948-.1985.5922-.5955.691-.2977,0-.5954-.1975-.6947-.4936-.1984-1.0859-.3969-2.1717-.2977-3.2576.0993-.3948.397-.5923.7939-.5923.2978,0,.4962.2962.4962.5923.0993.8884.2978,1.6782.2978,2.3692Z" fill="#5f9032"/><path d="M37.0024,76.3477c-.0992,0-.2977-.0988-.4961-.1975-.6947-.2961-1.3894-.4935-1.9848-.7897-.4962-.1974-.6947-.5923-.4962-.9871.1985-.3949.4962-.4936.9924-.2962.7939.2962,1.687.691,2.4809.9872.397.0987.5955.3948.4962.7897-.0992.3948-.4962.5923-.9924.4936Z" fill="#5f9032"/><path d="M41.27,76.249c.9924.1975,1.8855.3949,2.8779.691.397.0987.6947.2962.5954.691c0,.3949-.4962.691-.9924.5923-.7939-.1974-1.687-.3948-2.4809-.5923-.0993,0-.1985-.0987-.397-.0987-.2977-.1974-.3969-.4936-.2977-.7897.0992-.3949.397-.4936.6947-.4936Z" fill="#5f9032"/><path d="M56.3545,79.1114c-.4962,0-.9924,0-1.3893,0-.397,0-.5955-.1974-.6947-.4936c0-.3948.1985-.5922.5954-.5922.9924-.0988,1.9848-.1975,2.9772-.1975.4962,0,.7939.2962.7939.691c0,.2962-.2977.5923-.7939.691-.4962-.0987-.9924-.0987-1.4886-.0987Z" fill="#5f9032"/><path d="M244.908,30.9389c0,.1974,0,.3948,0,.4936c0,.1974-.099.3948-.397.3948-.198,0-.496,0-.595-.2961-.198-.7897-.397-1.6782-.397-2.4679c0-.1974.199-.3948.397-.3948.298,0,.397.0987.496.2961.397.691.397,1.382.496,1.9743Z" fill="#df4949"/><path d="M243.618,25.9044c0,.3949-.099.5923-.298.691-.297.0988-.496,0-.595-.2961-.298-.691-.595-1.2833-.893-1.9743-.099-.2961-.099-.4936.099-.691.198-.0987.496-.1974.595,0c.497.7897.894,1.5794,1.092,2.2704Z" fill="#df4949"/><path d="M244.313,40.1194c-.199.691-.397,1.382-.695,2.073-.099.2962-.397.4936-.794.3949-.297-.0987-.297-.4936-.198-.691.198-.691.397-1.2833.694-1.9743.1-.2961.298-.4936.596-.3949.298,0,.496.1975.397.5923Z" fill="#df4949"/><path d="M238.954,19.1919c.199,0,.397.0987.497.1974.496.4936.893,1.0859,1.389,1.5795.198.1974.198.5922,0,.7897-.298.1974-.596.0987-.794-.0987-.496-.5923-.992-1.1846-1.489-1.7769-.297-.1974-.099-.691.397-.691Z" fill="#df4949"/><path d="M243.916,35.9735c.099-.4936.099-.9871.199-1.4807.099-.2961.198-.4936.496-.3949.297,0,.397.1975.496.4936c0,.7897,0,1.5794-.199,2.3692-.099.2961-.198.4935-.496.3948-.298,0-.397-.1974-.397-.4936-.099-.2961-.099-.5922-.099-.8884Z" fill="#df4949"/><path d="M237.168,17.6123c0,.3948-.497.5923-.794.3948-.695-.3948-1.29-.9871-1.886-1.4807-.198-.1974-.198-.4935-.099-.691.198-.2961.397-.2961.695-.0987.694.3949,1.29.8884,1.885,1.4807.099.0987.199.1975.199.3949Z" fill="#df4949"/><path d="M134.059,59.3689c-.397-.2961-.397-.691-.497-1.1846-.297-1.6781-.099-3.3563.1-5.0344.198-1.8756.595-3.7511,1.191-5.6267.198-.691.496-1.382.893-1.9743.297-.4936.595-.4936.992,0c.298.3948.397.7897.596,1.1846.396,1.4807.496,3.0601.099,4.6395-.596,2.3692-1.489,4.6396-2.481,6.9101-.298.3948-.496.7897-.893,1.0858Zm1.29-6.8113c.496-.8884.694-2.073.694-3.2576-.496,1.0859-.694,2.1718-.694,3.2576Z" fill="#41332b"/><path d="M150.929,56.0122c.099-2.4679.496-4.9358,1.39-7.3049.198-.3949.397-.8884.694-1.2833.496-.691.893-.691,1.39.0987.297.3949.496.8885.496,1.382.198,1.0859.198,2.1717-.099,3.2576-.596,1.9743-1.489,3.8499-2.481,5.6267-.1.0987-.1.1975-.199.2962-.198.1974-.298.5923-.595.5923-.397,0-.397-.3949-.497-.7898-.099-.5922-.099-1.1845-.099-1.8755Zm1.886-3.1589c.397-.7897.694-1.5794.595-2.4679.099,0-.099-.0987-.099,0-.199.7898-.496,1.5795-.496,2.4679Z" fill="#41332b"/><path d="M168.197,54.4331c0,.0987,0,.0987-.099.1974v-.0987l.099-.0987Z" fill="#41332b"/><path d="M186.754,59.3689c-.396-.3948-.496-.7897-.496-1.1846-.297-1.6781-.099-3.455.099-5.1331.199-1.8756.596-3.6524,1.092-5.4293.199-.691.496-1.4807.893-2.073.298-.4936.596-.4936.993,0c.297.3948.397.7897.595,1.1846.397,1.5794.496,3.1588.099,4.7383-.595,2.2704-1.389,4.4421-2.381,6.6138-.298.4936-.497.8885-.894,1.2833Zm1.291-6.91c.496-.9871.694-2.073.694-3.2576-.496,1.1846-.694,2.2705-.694,3.2576Z" fill="#41332b"/><path d="M103.096,32.8145c-.199,3.6524-.496,7.3048-.695,11.056-1.191-.3949-2.282-.7897-3.4733-1.1846c1.3893-3.3563,2.7783-6.6139,4.1683-9.8714Z" fill="#41332b"/><path d="M91.7827,51.965c-1.7863-1.4807-1.687-4.2447-.7939-5.7254.2977-.5923.8932-.9871,1.4886-1.1846.8931-.2961,1.7863-.3948,2.9772-.1974-1.1909,2.3691-2.3818,4.7383-3.6719,7.1074Zm.0992-3.8498c.397-.4936.5955-.9872.8932-1.6782-.6947.4936-.7939,1.0859-.8932,1.6782Z" fill="#41332b"/><path d="M65.6826,52.9525c.0993-2.0731.2977-4.1461.9924-6.1203.1985-.5923.4962-1.2833.8932-1.7769.3969-.4936.6946-.4936,1.2901-.1974.1984.0987.4962.2961.6946.5923c1.0917,1.2832,1.5879,2.764,1.1909,4.4421-.5954,2.2704-1.2901,4.4422-2.2825,6.4164-.1985.4936-.4962.8885-.7939,1.2833-.397.3949-.5954.2962-.9924-.0987-.2977-.2961-.3969-.691-.4962-1.0858-.3969-1.1846-.4962-2.3692-.4962-3.455Zm1.6871,1.4807c.8931-1.7769,1.5878-3.5538,1.8855-5.4293.0993-.8885-.1985-1.6782-.8931-2.4679-.9924,2.5666-1.1909,5.2319-.9924,7.8972Z" fill="#41332b"/><path d="M54.171,49.2996c0-.8884.0993-1.8756.397-2.9614.1985-.5923.3969-1.1846.8931-1.5795.5955-.4936,1.1909-.3948,1.4886.3949.0992.1974.1985.3948.1985.5923.1985,1.5794-.1985,3.0601-1.0916,4.3434-.1985.2961-.397.5923-.794.691-.7939.3949-1.1908.1974-1.1908-.691.0992-.1974.0992-.3949.0992-.7897Z" fill="#41332b"/><path d="M71.6371,62.6265c-.0992,2.1717-.397,4.2447-1.4886,6.1203-.2977.5923-.7939,1.0858-1.4886,1.2832-.5954.0988-.9924-.0987-1.0916-.7897s.0992-1.2833.397-1.8755c.8931-1.7769,2.1832-3.3563,3.6718-4.7383Z" fill="#41332b"/><path d="M219.106,27.0892c4.069-.0987,8.237,3.7511,7.939,8.3907-.297,3.8499-3.175,7.6997-8.336,7.5023-4.565-.1974-7.939-3.8498-7.74-8.3907.198-4.0473,3.969-7.6997,8.137-7.5023Zm-.099,14.4123c3.573,0,6.451-2.764,6.451-6.4164c0-3.1589-2.581-6.3178-6.352-6.4165-3.572-.0987-6.549,2.8627-6.649,6.3178.1,3.6524,2.878,6.4164,6.55,6.5151Z" transform="matrix(1.00489 0.069927 0.069927 1-3.52083-15.314696)" fill="#41332b"/><path d="M232.107,33.8018c.595,0,1.091.4935,1.091.9871c0,.0987-.099.1974-.099.1974-.099.0987-.198,0-.198-.0987-.199-.2961-.397-.5923-.695-.691-.099,0-.099-.0987-.099-.1974-.1-.0987,0-.1974,0-.1974Z" fill="#41332b"/><path d="M211.564,46.4373c0,.1974,0,.2961-.099.3948-.199.0987-.298,0-.298-.1974-.099-.2962-.099-.5923-.198-.7897c0-.0987,0-.2962.198-.2962.199,0,.199.0987.298.1975c0,.1974.099.4935.099.691Z" transform="matrix(1.00489 0.069927 0.069927 1-4.264347-14.773192)" fill="#41332b"/><path d="M205.709,32.6173c-.198,0-.397,0-.397-.1975-.099-.2961.099-.2961.298-.3948.099,0,.198-.0987.397-.0987.198,0,.297,0,.397.1974.099.2961-.1.2961-.298.3949-.199.0987-.298.0987-.397.0987Z" transform="matrix(1.00489 0.069927 0.069927 1-3.26326-14.394991)" fill="#41332b"/><path d="M233.496,33.0118c-.1.0987-.199.1974-.298.0987-.298-.1974-.595-.2961-.595-.691l.099-.0987c.298,0,.595.1974.694.4936.1,0,.1.0987.1.1974Z" fill="#41332b"/><path d="M227.343,44.9562c-.099.1974-.099.4936-.397.5923-.099,0-.198-.0987-.198-.1974c0-.1975.099-.4936.397-.5923.099,0,.198.0987.198.1974Z" fill="#41332b"/><path d="M206.404,30.6426c-.1,0-.199-.0987-.199-.2962.099-.1974.199-.2961.496-.2961.199,0,.199.0987.199.2961-.199.1975-.298.2962-.496.2962Z" transform="matrix(1.00489 0.069927 0.069927 1-3.132022-14.443558)" fill="#41332b"/><path d="M7.62779,23.7329c.09924,0,.19848.0987.19848.1974c0,.0988-.09924.1975-.29771.1975-.09924,0-.19848-.0987-.19848-.1975c0-.0987.09924-.1974.29771-.1974Z" fill="#fbcb0d"/><path d="M3.85693,30.3465c0-.3948,0-.691.39696-.9871-.09924.3948,0,.7897-.39696.9871Z" fill="#41332b"/><path d="M4.25391,29.3594c0-.2962.19847-.4936.39695-.5923-.09924.2961-.19848.4936-.39695.5923Z" transform="translate(.000002 0)" fill="#41332b"/><path d="M4.55176,28.7673c.09924-.0988.09924-.0988.19848-.1975c0,.0987-.09924.1975-.19848.1975Z" fill="#41332b"/><path id="ekf9M8SaQIs76" d="M233.397,7.24735c0,.09872-.099.29615-.199.49357-.595,1.18458-1.29,2.27048-1.985,3.35628-.099.1974-.198.2962-.396.3949-.199.0987-.397.0987-.596,0-.198-.1975-.298-.3949-.099-.5923.099-.1974.198-.2962.298-.4936.595-.98713,1.19-1.97428,1.786-2.96142.099-.19743.198-.39486.397-.59229.099-.09871.298-.19742.496-.09871.199,0,.298.19743.298.49357Z" transform="matrix(.8 0 0 0.8 46.341067 1.827901)" fill="#41332b"/>
<script><![CDATA[
!function(t,n){"object"==typeof exports&&"undefined"!=typeof module?module.exports=n():"function"==typeof __SVGATOR_DEFINE__&&__SVGATOR_DEFINE__.amd?__SVGATOR_DEFINE__(n):((t="undefined"!=typeof globalThis?globalThis:t||self).__SVGATOR_PLAYER__=t.__SVGATOR_PLAYER__||{},t.__SVGATOR_PLAYER__["5c7f360c"]=n())}(this,(function(){"use strict";function t(t,n){var e=Object.keys(t);if(Object.getOwnPropertySymbols){var r=Object.getOwnPropertySymbols(t);n&&(r=r.filter((function(n){return Object.getOwnPropertyDescriptor(t,n).enumerable}))),e.push.apply(e,r)}return e}function n(n){for(var e=1;e<arguments.length;e++){var r=null!=arguments[e]?arguments[e]:{};e%2?t(Object(r),!0).forEach((function(t){o(n,t,r[t])})):Object.getOwnPropertyDescriptors?Object.defineProperties(n,Object.getOwnPropertyDescriptors(r)):t(Object(r)).forEach((function(t){Object.defineProperty(n,t,Object.getOwnPropertyDescriptor(r,t))}))}return n}function e(t){return(e="function"==typeof Symbol&&"symbol"==typeof Symbol.iterator?function(t){return typeof t}:function(t){return t&&"function"==typeof Symbol&&t.constructor===Symbol&&t!==Symbol.prototype?"symbol":typeof t})(t)}function r(t,n){if(!(t instanceof n))throw new TypeError("Cannot call a class as a function")}function i(t,n){for(var e=0;e<n.length;e++){var r=n[e];r.enumerable=r.enumerable||!1,r.configurable=!0,"value"in r&&(r.writable=!0),Object.defineProperty(t,r.key,r)}}function u(t,n,e){return n&&i(t.prototype,n),e&&i(t,e),t}function o(t,n,e){return n in t?Object.defineProperty(t,n,{value:e,enumerable:!0,configurable:!0,writable:!0}):t[n]=e,t}function a(t){return(a=Object.setPrototypeOf?Object.getPrototypeOf:function(t){return t.__proto__||Object.getPrototypeOf(t)})(t)}function l(t,n){return(l=Object.setPrototypeOf||function(t,n){return t.__proto__=n,t})(t,n)}function s(){if("undefined"==typeof Reflect||!Reflect.construct)return!1;if(Reflect.construct.sham)return!1;if("function"==typeof Proxy)return!0;try{return Boolean.prototype.valueOf.call(Reflect.construct(Boolean,[],(function(){}))),!0}catch(t){return!1}}function f(t,n,e){return(f=s()?Reflect.construct:function(t,n,e){var r=[null];r.push.apply(r,n);var i=new(Function.bind.apply(t,r));return e&&l(i,e.prototype),i}).apply(null,arguments)}function c(t,n){if(n&&("object"==typeof n||"function"==typeof n))return n;if(void 0!==n)throw new TypeError("Derived constructors may only return object or undefined");return function(t){if(void 0===t)throw new ReferenceError("this hasn't been initialised - super() hasn't been called");return t}(t)}function h(t,n,e){return(h="undefined"!=typeof Reflect&&Reflect.get?Reflect.get:function(t,n,e){var r=function(t,n){for(;!Object.prototype.hasOwnProperty.call(t,n)&&null!==(t=a(t)););return t}(t,n);if(r){var i=Object.getOwnPropertyDescriptor(r,n);return i.get?i.get.call(e):i.value}})(t,n,e||t)}function v(t){return function(t){if(Array.isArray(t))return y(t)}(t)||function(t){if("undefined"!=typeof Symbol&&null!=t[Symbol.iterator]||null!=t["@@iterator"])return Array.from(t)}(t)||function(t,n){if(!t)return;if("string"==typeof t)return y(t,n);var e=Object.prototype.toString.call(t).slice(8,-1);"Object"===e&&t.constructor&&(e=t.constructor.name);if("Map"===e||"Set"===e)return Array.from(t);if("Arguments"===e||/^(?:Ui|I)nt(?:8|16|32)(?:Clamped)?Array$/.test(e))return y(t,n)}(t)||function(){throw new TypeError("Invalid attempt to spread non-iterable instance.\nIn order to be iterable, non-array objects must have a [Symbol.iterator]() method.")}()}function y(t,n){(null==n||n>t.length)&&(n=t.length);for(var e=0,r=new Array(n);e<n;e++)r[e]=t[e];return r}Number.isInteger||(Number.isInteger=function(t){return"number"==typeof t&&isFinite(t)&&Math.floor(t)===t}),Number.EPSILON||(Number.EPSILON=2220446049250313e-31);var g=p(Math.pow(10,-6));function p(t){var n=arguments.length>1&&void 0!==arguments[1]?arguments[1]:6;if(Number.isInteger(t))return t;var e=Math.pow(10,n);return Math.round((+t+Number.EPSILON)*e)/e}function d(t,n){var e=arguments.length>2&&void 0!==arguments[2]?arguments[2]:g;return Math.abs(t-n)<e}var m=Math.PI/180;function b(t){return t}function w(t,n,e){var r=1-e;return 3*e*r*(t*r+n*e)+e*e*e}function A(){var t=arguments.length>0&&void 0!==arguments[0]?arguments[0]:0,n=arguments.length>1&&void 0!==arguments[1]?arguments[1]:0,e=arguments.length>2&&void 0!==arguments[2]?arguments[2]:1,r=arguments.length>3&&void 0!==arguments[3]?arguments[3]:1;return t<0||t>1||e<0||e>1?null:d(t,n)&&d(e,r)?b:function(i){if(i<=0)return t>0?i*n/t:0===n&&e>0?i*r/e:0;if(i>=1)return e<1?1+(i-1)*(r-1)/(e-1):1===e&&t<1?1+(i-1)*(n-1)/(t-1):1;for(var u,o=0,a=1;o<a;){var l=w(t,e,u=(o+a)/2);if(d(i,l))break;l<i?o=u:a=u}return w(n,r,u)}}function _(){return 1}function x(t){return 1===t?1:0}function k(){var t=arguments.length>0&&void 0!==arguments[0]?arguments[0]:1,n=arguments.length>1&&void 0!==arguments[1]?arguments[1]:0;if(1===t){if(0===n)return x;if(1===n)return _}var e=1/t;return function(t){return t>=1?1:(t+=n*e)-t%e}}var S=Math.sin,O=Math.cos,j=Math.acos,E=Math.asin,M=Math.tan,P=Math.atan2,I=Math.PI/180,R=180/Math.PI,F=Math.sqrt,N=function(){function t(){var n=arguments.length>0&&void 0!==arguments[0]?arguments[0]:1,e=arguments.length>1&&void 0!==arguments[1]?arguments[1]:0,i=arguments.length>2&&void 0!==arguments[2]?arguments[2]:0,u=arguments.length>3&&void 0!==arguments[3]?arguments[3]:1,o=arguments.length>4&&void 0!==arguments[4]?arguments[4]:0,a=arguments.length>5&&void 0!==arguments[5]?arguments[5]:0;r(this,t),this.m=[n,e,i,u,o,a],this.i=null,this.w=null,this.s=null}return u(t,[{key:"determinant",get:function(){var t=this.m;return t[0]*t[3]-t[1]*t[2]}},{key:"isIdentity",get:function(){if(null===this.i){var t=this.m;this.i=1===t[0]&&0===t[1]&&0===t[2]&&1===t[3]&&0===t[4]&&0===t[5]}return this.i}},{key:"point",value:function(t,n){var e=this.m;return{x:e[0]*t+e[2]*n+e[4],y:e[1]*t+e[3]*n+e[5]}}},{key:"translateSelf",value:function(){var t=arguments.length>0&&void 0!==arguments[0]?arguments[0]:0,n=arguments.length>1&&void 0!==arguments[1]?arguments[1]:0;if(!t&&!n)return this;var e=this.m;return e[4]+=e[0]*t+e[2]*n,e[5]+=e[1]*t+e[3]*n,this.w=this.s=this.i=null,this}},{key:"rotateSelf",value:function(){var t=arguments.length>0&&void 0!==arguments[0]?arguments[0]:0;if(t%=360){var n=S(t*=I),e=O(t),r=this.m,i=r[0],u=r[1];r[0]=i*e+r[2]*n,r[1]=u*e+r[3]*n,r[2]=r[2]*e-i*n,r[3]=r[3]*e-u*n,this.w=this.s=this.i=null}return this}},{key:"scaleSelf",value:function(){var t=arguments.length>0&&void 0!==arguments[0]?arguments[0]:1,n=arguments.length>1&&void 0!==arguments[1]?arguments[1]:1;if(1!==t||1!==n){var e=this.m;e[0]*=t,e[1]*=t,e[2]*=n,e[3]*=n,this.w=this.s=this.i=null}return this}},{key:"skewSelf",value:function(t,n){if(n%=360,(t%=360)||n){var e=this.m,r=e[0],i=e[1],u=e[2],o=e[3];t&&(t=M(t*I),e[2]+=r*t,e[3]+=i*t),n&&(n=M(n*I),e[0]+=u*n,e[1]+=o*n),this.w=this.s=this.i=null}return this}},{key:"resetSelf",value:function(){var t=arguments.length>0&&void 0!==arguments[0]?arguments[0]:1,n=arguments.length>1&&void 0!==arguments[1]?arguments[1]:0,e=arguments.length>2&&void 0!==arguments[2]?arguments[2]:0,r=arguments.length>3&&void 0!==arguments[3]?arguments[3]:1,i=arguments.length>4&&void 0!==arguments[4]?arguments[4]:0,u=arguments.length>5&&void 0!==arguments[5]?arguments[5]:0,o=this.m;return o[0]=t,o[1]=n,o[2]=e,o[3]=r,o[4]=i,o[5]=u,this.w=this.s=this.i=null,this}},{key:"recomposeSelf",value:function(){var t=arguments.length>0&&void 0!==arguments[0]?arguments[0]:null,n=arguments.length>1&&void 0!==arguments[1]?arguments[1]:null,e=arguments.length>2&&void 0!==arguments[2]?arguments[2]:null,r=arguments.length>3&&void 0!==arguments[3]?arguments[3]:null,i=arguments.length>4&&void 0!==arguments[4]?arguments[4]:null;return this.isIdentity||this.resetSelf(),t&&(t.x||t.y)&&this.translateSelf(t.x,t.y),n&&this.rotateSelf(n),e&&(e.x&&this.skewSelf(e.x,0),e.y&&this.skewSelf(0,e.y)),!r||1===r.x&&1===r.y||this.scaleSelf(r.x,r.y),i&&(i.x||i.y)&&this.translateSelf(i.x,i.y),this}},{key:"decompose",value:function(){var t=arguments.length>0&&void 0!==arguments[0]?arguments[0]:0,n=arguments.length>1&&void 0!==arguments[1]?arguments[1]:0,e=this.m,r=e[0]*e[0]+e[1]*e[1],i=[[e[0],e[1]],[e[2],e[3]]],u=F(r);if(0===u)return{origin:{x:p(e[4]),y:p(e[5])},translate:{x:p(t),y:p(n)},scale:{x:0,y:0},skew:{x:0,y:0},rotate:0};i[0][0]/=u,i[0][1]/=u;var o=e[0]*e[3]-e[1]*e[2]<0;o&&(u=-u);var a=i[0][0]*i[1][0]+i[0][1]*i[1][1];i[1][0]-=i[0][0]*a,i[1][1]-=i[0][1]*a;var l=F(i[1][0]*i[1][0]+i[1][1]*i[1][1]);if(0===l)return{origin:{x:p(e[4]),y:p(e[5])},translate:{x:p(t),y:p(n)},scale:{x:p(u),y:0},skew:{x:0,y:0},rotate:0};i[1][0]/=l,i[1][1]/=l,a/=l;var s=0;return i[1][1]<0?(s=j(i[1][1])*R,i[0][1]<0&&(s=360-s)):s=E(i[0][1])*R,o&&(s=-s),a=P(a,F(i[0][0]*i[0][0]+i[0][1]*i[0][1]))*R,o&&(a=-a),{origin:{x:p(e[4]),y:p(e[5])},translate:{x:p(t),y:p(n)},scale:{x:p(u),y:p(l)},skew:{x:p(a),y:0},rotate:p(s)}}},{key:"clone",value:function(){var t=this.m;return new this.constructor(t[0],t[1],t[2],t[3],t[4],t[5])}},{key:"toString",value:function(){var t=arguments.length>0&&void 0!==arguments[0]?arguments[0]:" ";if(null===this.s){var n=this.m.map((function(t){return p(t)}));1===n[0]&&0===n[1]&&0===n[2]&&1===n[3]?this.s="translate("+n[4]+t+n[5]+")":this.s="matrix("+n.join(t)+")"}return this.s}}],[{key:"create",value:function(t){return t?Array.isArray(t)?f(this,v(t)):t instanceof this?t.clone():(new this).recomposeSelf(t.origin,t.rotate,t.skew,t.scale,t.translate):new this}}]),t}();function T(t,n,e){return t>=.5?e:n}function q(t,n,e){return 0===t||n===e?n:t*(e-n)+n}function B(t,n,e){var r=q(t,n,e);return r<=0?0:r}function D(t,n,e){var r=q(t,n,e);return r<=0?0:r>=1?1:r}function L(t,n,e){return 0===t?n:1===t?e:{x:q(t,n.x,e.x),y:q(t,n.y,e.y)}}function C(t,n,e){var r=function(t,n,e){return Math.round(q(t,n,e))}(t,n,e);return r<=0?0:r>=255?255:r}function V(t,n,e){return 0===t?n:1===t?e:{r:C(t,n.r,e.r),g:C(t,n.g,e.g),b:C(t,n.b,e.b),a:q(t,null==n.a?1:n.a,null==e.a?1:e.a)}}function G(t,n){for(var e=[],r=0;r<t;r++)e.push(n);return e}function z(t,n){if(--n<=0)return t;var e=(t=Object.assign([],t)).length;do{for(var r=0;r<e;r++)t.push(t[r])}while(--n>0);return t}var Y,$=function(){function t(n){r(this,t),this.list=n,this.length=n.length}return u(t,[{key:"setAttribute",value:function(t,n){for(var e=this.list,r=0;r<this.length;r++)e[r].setAttribute(t,n)}},{key:"removeAttribute",value:function(t){for(var n=this.list,e=0;e<this.length;e++)n[e].removeAttribute(t)}},{key:"style",value:function(t,n){for(var e=this.list,r=0;r<this.length;r++)e[r].style[t]=n}}]),t}(),U=/-./g,Q=function(t,n){return n.toUpperCase()};function H(t){return"function"==typeof t?t:T}function J(t){return t?"function"==typeof t?t:Array.isArray(t)?function(t){var n=arguments.length>1&&void 0!==arguments[1]?arguments[1]:b;if(!Array.isArray(t))return n;switch(t.length){case 1:return k(t[0])||n;case 2:return k(t[0],t[1])||n;case 4:return A(t[0],t[1],t[2],t[3])||n}return n}(t,null):function(t,n){var e=arguments.length>2&&void 0!==arguments[2]?arguments[2]:b;switch(t){case"linear":return b;case"steps":return k(n.steps||1,n.jump||0)||e;case"bezier":case"cubic-bezier":return A(n.x1||0,n.y1||0,n.x2||0,n.y2||0)||e}return e}(t.type,t.value,null):null}function Z(t,n,e){var r=arguments.length>3&&void 0!==arguments[3]&&arguments[3],i=n.length-1;if(t<=n[0].t)return r?[0,0,n[0].v]:n[0].v;if(t>=n[i].t)return r?[i,1,n[i].v]:n[i].v;var u,o=n[0],a=null;for(u=1;u<=i;u++){if(!(t>n[u].t)){a=n[u];break}o=n[u]}return null==a?r?[i,1,n[i].v]:n[i].v:o.t===a.t?r?[u,1,a.v]:a.v:(t=(t-o.t)/(a.t-o.t),o.e&&(t=o.e(t)),r?[u,t,e(t,o.v,a.v)]:e(t,o.v,a.v))}function K(t,n){var e=arguments.length>2&&void 0!==arguments[2]?arguments[2]:null;return t&&t.length?"function"!=typeof n?null:("function"!=typeof e&&(e=null),function(r){var i=Z(r,t,n);return null!=i&&e&&(i=e(i)),i}):null}function W(t,n){return t.t-n.t}function X(t,n,r,i,u){var o,a="@"===r[0],l="#"===r[0],s=Y[r],f=T;switch(a?(o=r.substr(1),r=o.replace(U,Q)):l&&(r=r.substr(1)),e(s)){case"function":if(f=s(i,u,Z,J,r,a,n,t),l)return f;break;case"string":f=K(i,H(s));break;case"object":if((f=K(i,H(s.i),s.f))&&"function"==typeof s.u)return s.u(n,f,r,a,t)}return f?function(t,n,e){if(arguments.length>3&&void 0!==arguments[3]&&arguments[3])return t instanceof $?function(r){return t.style(n,e(r))}:function(r){return t.style[n]=e(r)};if(Array.isArray(n)){var r=n.length;return function(i){var u=e(i);if(null==u)for(var o=0;o<r;o++)t[o].removeAttribute(n);else for(var a=0;a<r;a++)t[a].setAttribute(n,u)}}return function(r){var i=e(r);null==i?t.removeAttribute(n):t.setAttribute(n,i)}}(n,r,f,a):null}function tt(t,n,r,i){if(!i||"object"!==e(i))return null;var u=null,o=null;return Array.isArray(i)?o=function(t){if(!t||!t.length)return null;for(var n=0;n<t.length;n++)t[n].e&&(t[n].e=J(t[n].e));return t.sort(W)}(i):(o=i.keys,u=i.data||null),o?X(t,n,r,o,u):null}function nt(t,n,e){if(!e)return null;var r=[];for(var i in e)if(e.hasOwnProperty(i)){var u=tt(t,n,i,e[i]);u&&r.push(u)}return r.length?r:null}function et(t,n){if(!n.settings.duration||n.settings.duration<0)return null;var e,r,i,u,o,a=function(t,n){if(!n)return null;var e=[];if(Array.isArray(n))for(var r=n.length,i=0;i<r;i++){var u=n[i];if(2===u.length){var o=null;if("string"==typeof u[0])o=t.getElementById(u[0]);else if(Array.isArray(u[0])){o=[];for(var a=0;a<u[0].length;a++)if("string"==typeof u[0][a]){var l=t.getElementById(u[0][a]);l&&o.push(l)}o=o.length?1===o.length?o[0]:new $(o):null}if(o){var s=nt(t,o,u[1]);s&&(e=e.concat(s))}}}else for(var f in n)if(n.hasOwnProperty(f)){var c=t.getElementById(f);if(c){var h=nt(t,c,n[f]);h&&(e=e.concat(h))}}return e.length?e:null}(t,n.elements);return a?(e=a,r=n.settings,i=r.duration,u=e.length,o=null,function(t,n){var a=r.iterations||1/0,l=(r.alternate&&a%2==0)^r.direction>0?i:0,s=t%i,f=1+(t-s)/i;n*=r.direction,r.alternate&&f%2==0&&(n=-n);var c=!1;if(f>a)s=l,c=!0,-1===r.fill&&(s=r.direction>0?0:i);else if(n<0&&(s=i-s),s===o)return!1;o=s;for(var h=0;h<u;h++)e[h](s);return c}):null}function rt(t,n){if(Y=n,!t||!t.root||!Array.isArray(t.animations))return null;var e=function(t){for(var n=document.getElementsByTagName("svg"),e=0;e<n.length;e++)if(n[e].id===t.root&&!n[e].svgatorAnimation)return n[e].svgatorAnimation=!0,n[e];return null}(t);if(!e)return null;var r=t.animations.map((function(t){return et(e,t)})).filter((function(t){return!!t}));return r.length?{svg:e,animations:r,animationSettings:t.animationSettings,options:t.options||void 0}:null}function it(t){return+("0x"+(t.replace(/[^0-9a-fA-F]+/g,"")||27))}function ut(t,n,e){return!t||!e||n>t.length?t:t.substring(0,n)+ut(t.substring(n+1),e,e)}function ot(t){var n=arguments.length>1&&void 0!==arguments[1]?arguments[1]:27;return!t||t%n?t%n:ot(t/n,n)}function at(t,n,e){if(t&&t.length){var r=it(e),i=it(n),u=ot(r)+5,o=ut(t,ot(r,5),u);return o=o.replace(/\x7c$/g,"==").replace(/\x2f$/g,"="),o=function(t,n,e){var r=+("0x"+t.substring(0,4));t=t.substring(4);for(var i=n%r+e%27,u=[],o=0;o<t.length;o+=2)if("|"!==t[o]){var a=+("0x"+t[o]+t[o+1])-i;u.push(a)}else{var l=+("0x"+t.substring(o+1,o+1+4))-i;o+=3,u.push(l)}return String.fromCharCode.apply(String,u)}(o=(o=atob(o)).replace(/[\x41-\x5A]/g,""),i,r),o=JSON.parse(o)}}var lt=[{key:"alternate",def:!1},{key:"fill",def:1},{key:"iterations",def:0},{key:"direction",def:1},{key:"speed",def:1},{key:"fps",def:100}],st=function(){function t(n,e){var i=this,u=arguments.length>2&&void 0!==arguments[2]?arguments[2]:null;r(this,t),this._id=0,this._running=!1,this._rollingBack=!1,this._animations=n,this._settings=e,(!u||u<"2022-05-02")&&delete this._settings.speed,lt.forEach((function(t){i._settings[t.key]=i._settings[t.key]||t.def})),this.duration=e.duration,this.offset=e.offset||0,this.rollbackStartOffset=0}return u(t,[{key:"alternate",get:function(){return this._settings.alternate}},{key:"fill",get:function(){return this._settings.fill}},{key:"iterations",get:function(){return this._settings.iterations}},{key:"direction",get:function(){return this._settings.direction}},{key:"speed",get:function(){return this._settings.speed}},{key:"fps",get:function(){return this._settings.fps}},{key:"maxFiniteDuration",get:function(){return this.iterations>0?this.iterations*this.duration:this.duration}},{key:"_apply",value:function(t){for(var n=arguments.length>1&&void 0!==arguments[1]?arguments[1]:{},e=this._animations,r=e.length,i=0,u=0;u<r;u++)n[u]?i++:(n[u]=e[u](t,1),n[u]&&i++);return i}},{key:"_rollback",value:function(t){var n=this,e=1/0,r=null;this.rollbackStartOffset=t,this._rollingBack=!0,this._running=!0;this._id=window.requestAnimationFrame((function i(u){if(n._rollingBack){null==r&&(r=u);var o=Math.round(t-(u-r)*n.speed);if(o>n.duration&&e!==1/0){var a=!!n.alternate&&o/n.duration%2>1,l=o%n.duration;o=(l+=a?n.duration:0)||n.duration}var s=(n.fps?1e3/n.fps:0)*n.speed,f=Math.max(0,o);f<=e-s&&(n.offset=f,e=f,n._apply(f));var c=n.iterations>0&&-1===n.fill&&o>=n.maxFiniteDuration;(o<=0||n.offset<o||c)&&n.stop(),n._id=window.requestAnimationFrame(i)}}))}},{key:"_start",value:function(){var t=this,n=arguments.length>0&&void 0!==arguments[0]?arguments[0]:0,e=-1/0,r=null,i={};this._running=!0;var u=function u(o){null==r&&(r=o);var a=Math.round((o-r)*t.speed+n),l=(t.fps?1e3/t.fps:0)*t.speed;if(a>=e+l&&!t._rollingBack&&(t.offset=a,e=a,t._apply(a,i)===t._animations.length))return void t.pause(!0);t._id=window.requestAnimationFrame(u)};this._id=window.requestAnimationFrame(u)}},{key:"_pause",value:function(){this._id&&window.cancelAnimationFrame(this._id),this._running=!1}},{key:"play",value:function(){if(!this._running)return this._rollingBack?this._rollback(this.offset):this._start(this.offset)}},{key:"stop",value:function(){this._pause(),this.offset=0,this.rollbackStartOffset=0,this._rollingBack=!1,this._apply(0)}},{key:"reachedToEnd",value:function(){return this.iterations>0&&this.offset>=this.iterations*this.duration}},{key:"restart",value:function(){var t=arguments.length>0&&void 0!==arguments[0]&&arguments[0];this.stop(t),this.play(t)}},{key:"pause",value:function(){this._pause()}},{key:"reverse",value:function(){this.direction=-this.direction}}],[{key:"build",value:function(t,n){delete t.animationSettings,t.options=at(t.options,t.root,"5c7f360c"),t.animations.map((function(n){n.settings=at(n.s,t.root,"5c7f360c"),delete n.s,t.animationSettings||(t.animationSettings=n.settings)}));var e=t.version;if(!(t=rt(t,n)))return null;var r=t.options||{},i=new this(t.animations,t.animationSettings,e);return{el:t.svg,options:r,player:i}}},{key:"push",value:function(t){return this.build(t)}},{key:"init",value:function(){var t=this,n=window.__SVGATOR_PLAYER__&&window.__SVGATOR_PLAYER__["5c7f360c"];Array.isArray(n)&&n.splice(0).forEach((function(n){return t.build(n)}))}}]),t}();function ft(t){return p(t)+""}function ct(t){var n=arguments.length>1&&void 0!==arguments[1]?arguments[1]:" ";return t&&t.length?t.map(ft).join(n):""}function ht(t){if(!t)return"transparent";if(null==t.a||t.a>=1){var n=function(t){return 1===(t=parseInt(t).toString(16)).length?"0"+t:t},e=function(t){return t.charAt(0)===t.charAt(1)},r=n(t.r),i=n(t.g),u=n(t.b);return e(r)&&e(i)&&e(u)&&(r=r.charAt(0),i=i.charAt(0),u=u.charAt(0)),"#"+r+i+u}return"rgba("+t.r+","+t.g+","+t.b+","+t.a+")"}function vt(t){return t?"url(#"+t+")":"none"}!function(){for(var t=0,n=["ms","moz","webkit","o"],e=0;e<n.length&&!window.requestAnimationFrame;++e)window.requestAnimationFrame=window[n[e]+"RequestAnimationFrame"],window.cancelAnimationFrame=window[n[e]+"CancelAnimationFrame"]||window[n[e]+"CancelRequestAnimationFrame"];window.requestAnimationFrame||(window.requestAnimationFrame=function(n){var e=Date.now(),r=Math.max(0,16-(e-t)),i=window.setTimeout((function(){n(e+r)}),r);return t=e+r,i},window.cancelAnimationFrame=window.clearTimeout)}();var yt={f:null,i:function(t,n,e){return 0===t?n:1===t?e:{x:B(t,n.x,e.x),y:B(t,n.y,e.y)}},u:function(t,n){return function(e){var r=n(e);t.setAttribute("rx",ft(r.x)),t.setAttribute("ry",ft(r.y))}}},gt={f:null,i:function(t,n,e){return 0===t?n:1===t?e:{width:B(t,n.width,e.width),height:B(t,n.height,e.height)}},u:function(t,n){return function(e){var r=n(e);t.setAttribute("width",ft(r.width)),t.setAttribute("height",ft(r.height))}}};Object.freeze({M:2,L:2,Z:0,H:1,V:1,C:6,Q:4,T:2,S:4,A:7});var pt={},dt=null;function mt(t){var n=function(){if(dt)return dt;if("object"!==("undefined"==typeof document?"undefined":e(document))||!document.createElementNS)return{};var t=document.createElementNS("http://www.w3.org/2000/svg","svg");return t&&t.style?(t.style.position="absolute",t.style.opacity="0.01",t.style.zIndex="-9999",t.style.left="-9999px",t.style.width="1px",t.style.height="1px",dt={svg:t}):{}}().svg;if(!n)return function(t){return null};var r=document.createElementNS(n.namespaceURI,"path");r.setAttributeNS(null,"d",t),r.setAttributeNS(null,"fill","none"),r.setAttributeNS(null,"stroke","none"),n.appendChild(r);var i=r.getTotalLength();return function(t){var n=r.getPointAtLength(i*t);return{x:n.x,y:n.y}}}function bt(t){return pt[t]?pt[t]:pt[t]=mt(t)}function wt(t,n,e,r){if(!t||!r)return!1;var i=["M",t.x,t.y];if(n&&e&&(i.push("C"),i.push(n.x),i.push(n.y),i.push(e.x),i.push(e.y)),n?!e:e){var u=n||e;i.push("Q"),i.push(u.x),i.push(u.y)}return n||e||i.push("L"),i.push(r.x),i.push(r.y),i.join(" ")}function At(t,n,e,r){var i=arguments.length>4&&void 0!==arguments[4]?arguments[4]:1,u=wt(t,n,e,r),o=bt(u);try{return o(i)}catch(t){return null}}function _t(t,n,e){return t+(n-t)*e}function xt(t,n,e){var r=arguments.length>3&&void 0!==arguments[3]&&arguments[3],i={x:_t(t.x,n.x,e),y:_t(t.y,n.y,e)};return r&&(i.a=kt(t,n)),i}function kt(t,n){return Math.atan2(n.y-t.y,n.x-t.x)}function St(t,n,e,r){var i=1-r;return i*i*t+2*i*r*n+r*r*e}function Ot(t,n,e,r){return 2*(1-r)*(n-t)+2*r*(e-n)}function jt(t,n,e,r){var i=arguments.length>4&&void 0!==arguments[4]&&arguments[4],u=At(t,n,null,e,r);return u||(u={x:St(t.x,n.x,e.x,r),y:St(t.y,n.y,e.y,r)}),i&&(u.a=Et(t,n,e,r)),u}function Et(t,n,e,r){return Math.atan2(Ot(t.y,n.y,e.y,r),Ot(t.x,n.x,e.x,r))}function Mt(t,n,e,r,i){var u=i*i;return i*u*(r-t+3*(n-e))+3*u*(t+e-2*n)+3*i*(n-t)+t}function Pt(t,n,e,r,i){var u=1-i;return 3*(u*u*(n-t)+2*u*i*(e-n)+i*i*(r-e))}function It(t,n,e,r,i){var u=arguments.length>5&&void 0!==arguments[5]&&arguments[5],o=At(t,n,e,r,i);return o||(o={x:Mt(t.x,n.x,e.x,r.x,i),y:Mt(t.y,n.y,e.y,r.y,i)}),u&&(o.a=Rt(t,n,e,r,i)),o}function Rt(t,n,e,r,i){return Math.atan2(Pt(t.y,n.y,e.y,r.y,i),Pt(t.x,n.x,e.x,r.x,i))}function Ft(t,n,e){var r=arguments.length>3&&void 0!==arguments[3]&&arguments[3];if(Tt(n)){if(qt(e))return jt(n,e.start,e,t,r)}else if(Tt(e)){if(Bt(n))return jt(n,n.end,e,t,r)}else{if(Bt(n))return qt(e)?It(n,n.end,e.start,e,t,r):jt(n,n.end,e,t,r);if(qt(e))return jt(n,e.start,e,t,r)}return xt(n,e,t,r)}function Nt(t,n,e){var r=Ft(t,n,e,!0);return r.a=function(t){return arguments.length>1&&void 0!==arguments[1]&&arguments[1]?t+Math.PI:t}(r.a)/m,r}function Tt(t){return!t.type||"corner"===t.type}function qt(t){return null!=t.start&&!Tt(t)}function Bt(t){return null!=t.end&&!Tt(t)}var Dt=new N;var Lt={f:ft,i:q},Ct={f:ft,i:D};function Vt(t,n,e){return t.map((function(t){return function(t,n,e){var r=t.v;if(!r||"g"!==r.t||r.s||!r.v||!r.r)return t;var i=e.getElementById(r.r),u=i&&i.querySelectorAll("stop")||[];return r.s=r.v.map((function(t,n){var e=u[n]&&u[n].getAttribute("offset");return{c:t,o:e=p(parseInt(e)/100)}})),delete r.v,t}(t,0,e)}))}var Gt={gt:"gradientTransform",c:{x:"cx",y:"cy"},rd:"r",f:{x:"x1",y:"y1"},to:{x:"x2",y:"y2"}};function zt(t,n,r,i,u,o,a,l){return Vt(t,0,l),n=function(t,n,e){for(var r,i,u,o=t.length-1,a={},l=0;l<=o;l++)(r=t[l]).e&&(r.e=n(r.e)),r.v&&"g"===(i=r.v).t&&i.r&&(u=e.getElementById(i.r))&&(a[i.r]={e:u,s:u.querySelectorAll("stop")});return a}(t,i,l),function(i){var u=r(i,t,Yt);if(!u)return"none";if("c"===u.t)return ht(u.v);if("g"===u.t){if(!n[u.r])return vt(u.r);var o=n[u.r];return function(t,n){for(var e=t.s,r=e.length;r<n.length;r++){var i=e[e.length-1].cloneNode();i.id=Qt(i.id),t.e.appendChild(i),e=t.s=t.e.querySelectorAll("stop")}for(var u=0,o=e.length,a=n.length-1;u<o;u++)e[u].setAttribute("stop-color",ht(n[Math.min(u,a)].c)),e[u].setAttribute("offset",n[Math.min(u,a)].o)}(o,u.s),Object.keys(Gt).forEach((function(t){if(void 0!==u[t])if("object"!==e(Gt[t])){var n,r="gt"===t?(n=u[t],Array.isArray(n)?"matrix("+n.join(" ")+")":""):u[t],i=Gt[t];o.e.setAttribute(i,r)}else Object.keys(Gt[t]).forEach((function(n){if(void 0!==u[t][n]){var e=u[t][n],r=Gt[t][n];o.e.setAttribute(r,e)}}))})),vt(u.r)}return"none"}}function Yt(t,e,r){if(0===t)return e;if(1===t)return r;if(e&&r){var i=e.t;if(i===r.t)switch(e.t){case"c":return{t:i,v:V(t,e.v,r.v)};case"g":if(e.r===r.r){var u={t:i,s:$t(t,e.s,r.s),r:e.r};return e.gt&&r.gt&&(u.gt=function(t,n,e){var r=n.length;if(r!==e.length)return T(t,n,e);for(var i=new Array(r),u=0;u<r;u++)i[u]=q(t,n[u],e[u]);return i}(t,e.gt,r.gt)),e.c?(u.c=L(t,e.c,r.c),u.rd=B(t,e.rd,r.rd)):e.f&&(u.f=L(t,e.f,r.f),u.to=L(t,e.to,r.to)),u}}if("c"===e.t&&"g"===r.t||"c"===r.t&&"g"===e.t){var o="c"===e.t?e:r,a="g"===e.t?n({},e):n({},r),l=a.s.map((function(t){return{c:o.v,o:t.o}}));return a.s="c"===e.t?$t(t,l,a.s):$t(t,a.s,l),a}}return T(t,e,r)}function $t(t,n,e){if(n.length===e.length)return n.map((function(n,r){return Ut(t,n,e[r])}));for(var r=Math.max(n.length,e.length),i=[],u=0;u<r;u++){var o=Ut(t,n[Math.min(u,n.length-1)],e[Math.min(u,e.length-1)]);i.push(o)}return i}function Ut(t,n,e){return{o:D(t,n.o,e.o||0),c:V(t,n.c,e.c||{})}}function Qt(t){return t.replace(/-fill-([0-9]+)$/,(function(t,n){return"-fill-"+(+n+1)}))}var Ht={fill:zt,"fill-opacity":Ct,stroke:zt,"stroke-opacity":Ct,"stroke-width":Lt,"stroke-dashoffset":{f:ft,i:q},"stroke-dasharray":{f:function(t){var n=arguments.length>1&&void 0!==arguments[1]?arguments[1]:" ";return t&&t.length>0&&(t=t.map((function(t){return p(t,4)}))),ct(t,n)},i:function(t,n,e){var r,i,u,o=n.length,a=e.length;if(o!==a)if(0===o)n=G(o=a,0);else if(0===a)a=o,e=G(o,0);else{var l=(u=(r=o)*(i=a)/function(t,n){for(var e;n;)e=n,n=t%n,t=e;return t||1}(r,i))<0?-u:u;n=z(n,Math.floor(l/o)),e=z(e,Math.floor(l/a)),o=a=l}for(var s=[],f=0;f<o;f++)s.push(p(B(t,n[f],e[f])));return s}},opacity:Ct,transform:function(t,n,r,i){if(!(t=function(t,n){if(!t||"object"!==e(t))return null;var r=!1;for(var i in t)t.hasOwnProperty(i)&&(t[i]&&t[i].length?(t[i].forEach((function(t){t.e&&(t.e=n(t.e))})),r=!0):delete t[i]);return r?t:null}(t,i)))return null;var u=function(e,i,u){var o=arguments.length>3&&void 0!==arguments[3]?arguments[3]:null;return t[e]?r(i,t[e],u):n&&n[e]?n[e]:o};return n&&n.a&&t.o?function(n){var e=r(n,t.o,Nt);return Dt.recomposeSelf(e,u("r",n,q,0)+e.a,u("k",n,L),u("s",n,L),u("t",n,L)).toString()}:function(t){return Dt.recomposeSelf(u("o",t,Ft,null),u("r",t,q,0),u("k",t,L),u("s",t,L),u("t",t,L)).toString()}},r:Lt,"#size":gt,"#radius":yt,_:function(t,n){if(Array.isArray(t))for(var e=0;e<t.length;e++)this[t[e]]=n;else this[t]=n}},Jt=function(t){!function(t,n){if("function"!=typeof n&&null!==n)throw new TypeError("Super expression must either be null or a function");t.prototype=Object.create(n&&n.prototype,{constructor:{value:t,writable:!0,configurable:!0}}),n&&l(t,n)}(o,t);var n,e,i=(n=o,e=s(),function(){var t,r=a(n);if(e){var i=a(this).constructor;t=Reflect.construct(r,arguments,i)}else t=r.apply(this,arguments);return c(this,t)});function o(){return r(this,o),i.apply(this,arguments)}return u(o,null,[{key:"build",value:function(t){var n=h(a(o),"build",this).call(this,t,Ht);if(!n)return null;n.el,n.options,function(t,n,e){t.play()}(n.player)}}]),o}(st);return Jt.init(),Jt}));
(function(s,i,o,w,d,a,b){w[o]=w[o]||{};w[o][s]=w[o][s]||[];w[o][s].push(i);})('5c7f360c',{"root":"ekf9M8SaQIs1","version":"2022-05-04","animations":[{"elements":{"ekf9M8SaQIs8":{"transform":{"data":{"o":{"x":229.084268,"y":7.821196,"type":"corner"},"t":{"x":-229.084274,"y":-7.821064}},"keys":{"s":[{"t":0,"v":{"x":0.8,"y":0.8}},{"t":500,"v":{"x":1,"y":1}},{"t":1000,"v":{"x":0.8,"y":0.8}},{"t":1500,"v":{"x":1,"y":1}},{"t":2000,"v":{"x":0.8,"y":0.8}},{"t":2500,"v":{"x":1,"y":1}},{"t":3000,"v":{"x":0.8,"y":0.8}}]}}},"ekf9M8SaQIs38":{"transform":{"data":{"o":{"x":229.045136,"y":7.859304,"type":"corner"},"t":{"x":-229.045135,"y":-7.859316}},"keys":{"s":[{"t":0,"v":{"x":0.8,"y":0.8}},{"t":500,"v":{"x":1,"y":1}},{"t":1000,"v":{"x":0.8,"y":0.8}},{"t":1500,"v":{"x":1,"y":1}},{"t":2000,"v":{"x":0.8,"y":0.8}},{"t":2500,"v":{"x":1,"y":1}},{"t":3000,"v":{"x":0.8,"y":0.8}}]}}},"ekf9M8SaQIs76":{"transform":{"data":{"o":{"x":231.705336,"y":9.139727,"type":"corner"},"t":{"x":-231.705336,"y":-9.139782}},"keys":{"s":[{"t":0,"v":{"x":0.8,"y":0.8}},{"t":500,"v":{"x":1,"y":1}},{"t":1000,"v":{"x":0.8,"y":0.8}},{"t":1500,"v":{"x":1,"y":1}},{"t":2000,"v":{"x":0.8,"y":0.8}},{"t":2500,"v":{"x":1,"y":1}},{"t":3000,"v":{"x":0.8,"y":0.8}}]}}}},"s":"MDDA1ZGMwNjdhOWJhYjAdhNmI5YWViNGIzNjcN3ZlQ3ODc1NzU3NVM3CMUs2N2E5YWViN2FhYWThiOWFlYjRiMzY3N2EY3NjcxUzY3YWViOWFKhYjdhNmI5YWViNGIzOT2I4Njc3Zjc1NzE2NJ2FiYWViMWIxNjdFN2MY3NjcxNjdhNmIxYjlAhYWI3YjNhNmI5YWE2WNzdmYWJhNmIxYjhhYETcxNjdiOGI1YWFhYWJE5Njc3Zjc2NzE2N2FBiYjViODY3N2Y3Njc1UNzVjMg|"}],"options":"MNDAxMDg4MmY4MDgxNmVU3ZjgxMmY0NzJmNzkJ3YzZlNzEyZjhhSg|"},'__SVGATOR_PLAYER__',window,document)
]]></script>
</svg>
